<?xml version="1.0" standalone="no"?>
<!DOCTYPE svg PUBLIC "-//W3C//DTD SVG 1.1//EN" "http://www.w3.org/Graphics/SVG/1.1/DTD/svg11.dtd" >
<svg xmlns="http://www.w3.org/2000/svg" xmlns:xlink="http://www.w3.org/1999/xlink" version="1.1">
<metadata></metadata>
<defs>
<font id="airstrike_gradientregular" horiz-adv-x="1546" >
<font-face units-per-em="2048" ascent="1638" descent="-410" />
<missing-glyph horiz-adv-x="571" />
<glyph horiz-adv-x="0" />
<glyph unicode="&#xd;" horiz-adv-x="1024" />
<glyph unicode=" "  horiz-adv-x="571" />
<glyph unicode="&#x09;" horiz-adv-x="571" />
<glyph unicode="&#xa0;" horiz-adv-x="571" />
<glyph unicode="!" horiz-adv-x="507" d="M137 96q0 -37 17 -55h221q55 39 78 96h-312q-4 -8 -4 -18v-23zM158 170h307q0 4 1 10t1 13q0 39 -27 65h-192q-59 -37 -90 -88zM184 14q23 -14 66 -14q39 0 74 14h-140zM184 350h394l10 31h-393zM211 426h393l29 76h-393zM258 555h393l27 70h-393zM305 684h393l23 61 h-393zM352 813h393l21 55h-393zM399 940h394l18 49h-393zM446 1069h394l6 16h-393z" />
<glyph unicode="&#x22;" horiz-adv-x="667" d="M373 813h219q25 27 37 55h-252q-2 -12 -3 -25.5t-1 -29.5zM379 745q6 -23 17.5 -36t31.5 -13h16q12 0 35 13.5t47 35.5h-147zM399 940h256l7 16q4 10 8 33h-248q-10 -16 -16 -33zM506 1069h133q-10 8 -25.5 13t-33.5 5q-37 0 -74 -18zM670 813h219q10 14 20.5 27.5 t16.5 27.5h-252q-2 -12 -3 -25.5t-1 -29.5zM676 745q6 -23 17.5 -36t31.5 -13h16q12 0 35 13.5t47 35.5h-147zM696 940h256l6 16q4 10 9 33h-248q-10 -16 -17 -33zM803 1069h133q-10 8 -25.5 13t-33.5 5q-37 0 -74 -18z" />
<glyph unicode="#" horiz-adv-x="1529" d="M113 209h258l-15 -39h394l14 39h158l-15 -39h393l15 39h61l51 49h-1263zM207 299h1263l89 82h-1264zM252 592h258l-14 -37h393l14 37h158l-14 -37h393l14 37h62l34 33h-1263zM295 0h393l4 14h-393zM309 41h393l35 96h-393zM342 426h1264l63 59h-254l6 17h-393l-6 -17 h-158l6 17h-393l-6 -17h-65zM348 684h1264l65 61h-1263zM485 813h1264l59 55h-1263zM637 940h393l19 49h-394zM684 1069h393l6 16h-393zM846 0h393l4 14h-393zM860 41h393l35 96h-393zM1188 940h393l18 49h-393zM1235 1069h393l6 16h-393z" />
<glyph unicode="$" horiz-adv-x="1351" d="M80 0h475l-33 -86h258l33 86h311q39 0 70 14h-1106q-4 -6 -8 -14zM104 41h1137q55 37 96 96h-1163q-20 -27 -37.5 -51.5t-32.5 -44.5zM199 170h1159q12 23 22.5 44t18.5 44h-1127q-14 -14 -32.5 -36.5t-40.5 -51.5zM322 555h1036q-10 20 -26 37t-32 33h-978v-21v-49z M322 684h432q-12 6 -19 12q-4 4 -12 11.5t-8 9.5v10q0 10 2 18h-395v-22v-39zM330 502q12 -53 51 -76h1024q-4 18 -8.5 38t-12.5 38h-1054zM340 813h1112l55 55h-1140q-8 -14 -14.5 -27.5t-12.5 -27.5zM414 940h1161q10 12 20.5 24.5t20.5 24.5h-1159q-10 -12 -21.5 -24.5 t-21.5 -24.5zM451 -289h258l20 60h-258zM477 -215h258l39 109h-258zM569 1069h1108q4 4 5.5 8t5.5 8h-480l9 27h-259l-8 -27h-307q-35 0 -74 -16zM664 299h258l28 82h-258zM805 684h258l20 61h-258zM989 1198h258l13 35h-259zM1026 299h383q2 10 3 22.5t1 22.5v12 q0 16 -2 25h-385q4 -17 4 -25v-24q0 -23 -4 -33zM1036 1327h258l11 29h-258z" />
<glyph unicode="%" horiz-adv-x="1613" d="M174 0h350l17 14h-351zM223 41h350l117 96h-350zM346 745q0 -35 6 -61h621q23 26 41 61h-256q-41 -31 -62 -30h-53q-29 0 -49 30h-248zM354 813h221l13 33q4 4 7 10t7 12h-229q-8 -20 -11 -28q-4 -10 -8 -27zM377 625q18 -29 47 -44.5t65 -25.5h297q70 19 127 70h-536z M379 170h352l107 88h-353zM418 940h629q-4 14 -7.5 26.5t-9.5 22.5h-567q-12 -12 -23.5 -24.5t-21.5 -24.5zM535 299h352l100 82h-352zM586 1069h340q-59 16 -123 16h-135q-39 0 -82 -16zM688 426h352l93 76h-353zM809 813h233q5 17 5 23q2 8 2 16t2 16h-234v-12 q0 -27 -2 -31zM846 555h352l84 70h-352zM971 170h647q23 35 39 76l4 12h-234q-2 -4 -6 -8q-16 -29 -50 -53.5t-52 -24.5h-53q-27 0 -48.5 28.5t-21.5 57.5h-223v-10q-6 -39 -2 -78zM975 137q14 -63 67 -96h437q67 39 112 96h-616zM985 299h223l2 4q16 29 44 51.5t53 26.5 h-279q-27 -37 -43 -82zM1001 684h353l73 61h-352zM1065 426h596q-16 45 -64 76h-442q-47 -29 -90 -76zM1104 14q51 -14 127 -14h102q43 0 84 14h-313zM1157 813h352l68 55h-352zM1311 940h354l59 49h-354zM1384 381q33 -4 43.5 -22.5t10.5 -45.5v-14h231q8 43 2 82h-287z M1466 1069h355l20 16h-354z" />
<glyph unicode="&#x26;" horiz-adv-x="1638" d="M125 125q0 -59 39 -84h1108q70 33 112 96h-1259v-12zM129 170h1274q10 18 21.5 40.5t21.5 47.5h-1294q-17 -53 -23 -88zM166 299h452q-4 6 -8 13t-8 12l19 57h-418q-10 -23 -20.5 -44.5t-16.5 -37.5zM231 426h1348l80 76h-946l-68 -60l21 60h-344q-20 -14 -44 -31.5 t-47 -44.5zM233 14q60 -14 181 -14h581q119 0 191 14h-953zM315 625q1 -43 15 -70h356l25 70h-396zM317 684h414l23 61h-424zM356 813h979q14 14 27 27.5t27 27.5h-1012q-8 -20 -10 -30zM416 940h1034q10 12 19.5 24.5t19.5 24.5h-1030q-25 -25 -43 -49zM635 1069h911 q5 4 13 16h-750q-53 0 -96 -4t-78 -12zM774 555h942l74 70h-934zM1008 299h452q8 18 15.5 38.5t11.5 43.5h-416q-4 -12 -8 -22.5t-6 -14.5l-4 -10q-2 -2 -5 -6l-4 -4q-6 -4 -16 -11.5t-20 -13.5z" />
<glyph unicode="'" horiz-adv-x="370" d="M373 813h219q25 27 37 55h-252q-2 -12 -3 -25.5t-1 -29.5zM379 745q6 -23 17.5 -36t31.5 -13h16q12 0 35 13.5t47 35.5h-147zM399 940h256l7 16q4 10 8 33h-248q-10 -16 -16 -33zM506 1069h133q-10 8 -25.5 13t-33.5 5q-37 0 -74 -18z" />
<glyph unicode="(" horiz-adv-x="839" d="M244 426h381q-2 8 -2 25v2q0 14 12 49h-385q-6 -41 -6 -76zM246 381q2 -23 4 -43.5t6 -38.5h446q-16 18 -32.5 38.5t-26.5 43.5h-397zM264 555h389q0 4 2 6l17 49q2 4 2 6q0 4 2 9h-389q-8 -18 -13.5 -36t-9.5 -34zM268 258q16 -51 39 -88h524v4q-12 14 -35.5 34.5 t-52.5 49.5h-475zM311 684h394q14 31 36 61h-399zM330 137q43 -57 100 -96h365q10 27 19 51.5t13 44.5h-497zM385 813h418q20 16 41.5 27.5t44.5 11.5h35q6 4 18 16h-518q-10 -14 -19.5 -27.5t-19.5 -27.5zM471 14q74 -43 147.5 -61.5t120.5 -28.5q10 23 21.5 45t21.5 45 h-311zM483 940h535q12 12 23.5 24.5t23.5 24.5h-533zM637 1069h493q10 10 17.5 21.5t17.5 21.5h-434q-47 -14 -94 -43z" />
<glyph unicode=")" horiz-adv-x="837" d="M45 -76h348q59 0 120 24.5t116 65.5h-514q-16 -23 -35 -44t-35 -46zM137 41h527q25 23 49 45t47 51h-535q-23 -23 -44 -47t-44 -49zM260 170h526q16 23 32 44t30 44h-414q-25 -27 -51.5 -42t-50.5 -15h-35zM395 868q33 -22 74 -55h477q-4 14 -11 27.5t-13 27.5h-527z M399 940h471q-12 14 -24 25.5t-27 23.5h-401q-6 -14 -10.5 -26.5t-8.5 -22.5zM453 1069h233q-33 14 -64.5 24.5t-60.5 18.5h-88q-4 -10 -10 -21.5t-10 -21.5zM469 299h403q10 20 20.5 39.5t20.5 42.5h-391q-23 -45 -53 -82zM532 745q27 -34 41 -61h402q-2 16 -3 30.5 t-5 30.5h-435zM543 426h389q8 18 14 38t12 38h-389q-4 -8 -8 -25l-12 -35q-4 -12 -6 -16zM586 555h383q4 18 6 36t2 34h-381q0 -6 1 -12.5t1 -10.5q-2 -6 -5 -18.5t-7 -28.5z" />
<glyph unicode="*" horiz-adv-x="503" d="M412 940h346l-33 49h-242zM442 1069h394v43h-365zM446 868l46 -53l45 53h-91zM584 868l8 -53l86 53h-94zM594 1198h174l10 21h-178z" />
<glyph unicode="+" horiz-adv-x="944" d="M211 426h678l80 76h-678zM346 555h678l74 70h-678zM414 201h276l21 57h-277zM449 299h276l29 82h-277zM588 684h276l23 61h-277zM635 813h276l21 55h-277z" />
<glyph unicode="," horiz-adv-x="425" d="M76 -2q0 -20 2 -42t6 -42h188q55 49 95 100h-291v-16zM76 41h305q4 4 8 16l29 80h-312l-28 -80q-2 -4 -2 -16zM92 -106q16 -41 55 -41h19q14 0 34.5 11t45.5 30h-154zM121 170h305q4 17 4 23q0 39 -27 65h-192q-59 -37 -90 -88z" />
<glyph unicode="-" horiz-adv-x="739" d="M211 426h473l80 76h-473zM346 555h473l74 70h-473z" />
<glyph unicode="." horiz-adv-x="425" d="M100 96q0 -37 17 -55h221q55 39 78 96h-312q-4 -8 -4 -18v-23zM121 170h307q0 4 1 10t1 13q0 39 -27 65h-192q-59 -37 -90 -88zM147 14q23 -14 66 -14q39 0 74 14h-140z" />
<glyph unicode="/" horiz-adv-x="1345" d="M37 0h436l16 14h-436zM82 41h436l111 96h-439zM227 170h439l100 88h-438zM373 299h438l94 82h-438zM518 426h438l86 76h-438zM664 555h438l80 70h-439zM811 684h438l70 61h-438zM956 813h439l63 55h-438zM1100 940h438l55 49h-438zM1247 1069h439l18 16h-438z" />
<glyph unicode="0" horiz-adv-x="1476" d="M231 381q1 -45 7 -82h491q-45 29 -74 82h-424zM231 426h404q-12 37 -12 74v2h-383v-4q-4 -20 -6.5 -38t-2.5 -34zM248 258q8 -25 17 -47.5t24 -40.5h1085q25 20 47.5 41.5t42.5 46.5h-1216zM252 555h379q4 20 22 55q4 8 9 15h-386q-16 -39 -24 -70zM305 684h400 q31 33 67 61h-432q-10 -16 -18.5 -30.5t-16.5 -30.5zM313 137q59 -66 150 -96h700q92 33 170 96h-1020zM389 813h1239q-6 27 -18 55h-1172zM516 940h1047q-10 14 -23.5 26.5t-28.5 22.5h-929q-16 -12 -33 -24.5t-33 -24.5zM565 14q84 -14 191 -14h205q63 0 120 14h-516z M754 1069h565q-41 8 -86 12t-92 4h-271q-55 0 -116 -16zM1010 299h489q32 43 55 82h-426q-29 -27 -59.5 -47.5t-58.5 -34.5zM1174 426h405q19 39 31 76h-387q-4 -6 -7.5 -13.5t-7.5 -13.5q-8 -12 -16 -24.5t-18 -24.5zM1221 745q16 -23 22 -61h399v16q0 10 -1 22.5t-1 22.5 h-419zM1241 555h385q2 8 3 15.5t3 17.5t3 18t1 19h-389q0 -16 -1 -33t-3 -33z" />
<glyph unicode="1" horiz-adv-x="665" d="M215 0h393l4 14h-393zM229 41h394l34 96h-393zM276 170h394l30 88h-393zM324 299h393l28 82h-393zM342 813h561l21 55h-543q-33 -41 -39 -55zM369 426h393l29 76h-394zM416 555h393l27 70h-394zM438 940h512l19 49h-488zM463 684h393l23 61h-394zM561 1069h436l7 16h-420 q-6 -4 -11.5 -8t-11.5 -8z" />
<glyph unicode="2" horiz-adv-x="1353" d="M115 131q-1 -57 24 -90h1061q39 43 84 96h-1169v-6zM117 170h1196q23 29 41 52.5t28 35.5h-1241q-18 -47 -24 -88zM162 299h387l33 57q12 16 20 25h-385q-16 -16 -24 -31q-10 -12 -17.5 -25.5t-13.5 -25.5zM168 14q22 -14 61 -14h932l15 14h-1008zM258 426h916 q35 14 71.5 33.5t71.5 42.5h-975q-23 -18 -44.5 -38t-39.5 -38zM356 813h1248q4 14 8 27.5t6 27.5h-1221q-12 -16 -21 -29.5t-20 -25.5zM412 555h979q46 37 79 70h-942q-55 -29 -116 -70zM457 940h1167q-2 12 -3 24.5t-5 24.5h-1114q-12 -12 -23.5 -24.5t-21.5 -24.5z M580 1069h983q-27 16 -62 16h-905zM1102 684h424q18 19 30 37q4 6 7.5 12t7.5 12h-391q-2 -8 -13 -18l-8 -10q0 -2 -12 -9.5t-21 -11.5q-4 -4 -11 -6t-13 -6z" />
<glyph unicode="3" horiz-adv-x="1374" d="M57 0h904q118 0 190 14h-1083q-4 -4 -6.5 -7t-4.5 -7zM84 41h1153q70 33 113 96h-1198q-16 -23 -34 -47t-34 -49zM174 170h1194q10 18 21.5 40.5t21.5 47.5h-1163q-20 -23 -37.5 -44t-36.5 -44zM362 813h1199q-2 12 -3.5 25.5t-5.5 29.5h-1153zM449 940h1081 q-6 12 -12.5 24.5t-14.5 24.5h-1020q-10 -12 -18 -24.5t-16 -24.5zM512 426h944q-2 27 -13.5 44.5t-21.5 31.5h-823zM551 1069h872q-33 16 -67 16h-789l-8 -8zM659 555h793q32 27 59 70h-772zM973 299h452q16 37 27 82h-424q0 -29 -6 -37l-4 -10q-2 -2 -5 -6l-3 -4 q-6 -4 -16.5 -11.5t-20.5 -13.5zM1130 684h412q12 31 19 61h-392l-2 -4q-4 -8 -15.5 -25.5t-21.5 -31.5z" />
<glyph unicode="4" horiz-adv-x="1339" d="M211 426h723l74 76h-768zM258 555h803l47 47l-18 -47h393l26 70h-1224zM305 684h389l23 61h-389zM352 813h389l21 55h-389zM399 940h389l19 49h-389zM446 1069h390l6 16h-389zM889 0h393l4 14h-393zM903 41h393l35 96h-393zM950 170h393l31 88h-393zM997 299h394l28 82 h-393zM1042 426h394l28 76h-393zM1137 684h393l22 61h-393zM1184 813h393l20 55h-393zM1231 940h393l18 49h-393zM1278 1069h393l6 16h-393z" />
<glyph unicode="5" horiz-adv-x="1339" d="M66 0h1044q39 0 70 14h-1106q-4 -6 -8 -14zM90 41h1137q55 37 96 96h-1163q-20 -27 -38 -51.5t-32 -44.5zM184 170h1159q12 23 22.5 44t18.5 44h-1126q-14 -14 -32.5 -36.5t-41.5 -51.5zM305 684h430q-12 8 -14 12q-4 4 -12.5 11.5t-8.5 9.5v10l7 18h-390l-8 -22 q-2 -10 -3 -19.5t-1 -19.5zM315 625q8 -35 31 -70h981q-29 43 -65 70h-947zM342 813h1096q14 14 28.5 27.5t28.5 27.5h-1133zM387 502q43 -45 96 -76h906l-12.5 37.5t-16.5 38.5h-973zM389 940h1172q10 12 20.5 24.5t20.5 24.5h-1194zM436 1069h1227q4 4 5 8t5 8h-1231z M995 299h400q2 10 3 22.5t1 22.5v8q0 6 -1 13.5t-1 15.5h-385q4 -16 4 -25q-1 -26 -21 -57z" />
<glyph unicode="6" horiz-adv-x="1302" d="M260 461q0 -19 4 -35h1143q6 37 6 68v8h-1153v-4v-37zM262 555h1143q-12 39 -43 70h-1086q-4 -18 -7 -36t-7 -34zM270 381q9 -45 25 -82h479q-33 27 -65 82h-439zM295 684h397q10 16 21.5 31.5t23.5 29.5h-415q-8 -16 -14.5 -30.5t-12.5 -30.5zM315 258q31 -53 68 -88 h877q18 20 34.5 42.5t32.5 45.5h-1012zM360 813h1033l61 55h-1055q-10 -14 -19.5 -27.5t-19.5 -27.5zM420 137q41 -35 90 -57.5t104 -38.5h484q35 16 67.5 41.5t63.5 54.5h-809zM465 940h1057l43 49h-1041q-16 -12 -30.5 -24.5t-28.5 -24.5zM682 1069h946q4 4 12 16h-845 q-54 0 -113 -16zM737 14q49 -8 99.5 -11t101.5 -3q49 0 92 14h-293zM963 299h391q10 20 20.5 39.5t18.5 42.5h-400q4 -16 8 -25z" />
<glyph unicode="7" horiz-adv-x="1251" d="M115 0h413l15 14h-416zM154 41h415l97 96h-420zM276 170h422l88 88h-424zM342 813h997l56 55h-1014q-33 -41 -39 -55zM401 299h426l82 82h-428zM438 940h1026l49 49h-1032zM524 426h430l76 76h-434zM561 1069h1032l17 16h-1026q-6 -4 -11.5 -8t-11.5 -8zM647 555h436 l68 70h-436zM772 684h438l62 61h-441z" />
<glyph unicode="8" horiz-adv-x="1437" d="M125 125q0 -59 39 -84h1136q70 33 113 96h-1288v-12zM129 170h1303q10 18 21.5 40.5t21.5 47.5h-1323q-8 -25 -13.5 -46.5t-9.5 -41.5zM166 299h452q-4 6 -8 13t-8 12l2 6q0 2 1 3t1 3l-2 4l14 41h-415q-10 -23 -20.5 -44.5t-16.5 -37.5zM231 426h1289q-2 27 -13.5 44.5 t-21.5 31.5h-772l-68 -60l21 60h-344q-20 -14 -44 -31.5t-47 -44.5zM233 14q59 -14 181 -14h610q118 0 190 14h-981zM315 625q1 -43 15 -70h356l25 70h-396zM317 684h414l23 61h-424zM356 813h1270q-2 12 -2 27q0 14 -4 28h-1243q-8 -20 -10 -30zM416 940h1181 q-10 25 -24 49h-1114q-25 -24 -43 -49zM635 1069h854q-33 16 -70 16h-610q-53 0 -96 -4t-78 -12zM774 555h742q32 27 59 70h-719zM1036 299h453l4 10q13 31 23 72h-416q-4 -12 -8.5 -22.5t-6.5 -14.5l-4 -10q-2 -2 -5 -6l-3 -4q-6 -4 -16 -11.5t-21 -13.5zM1194 684h410 q2 2 2 4t2 6q4 14 8 26.5t6 24.5h-391v-4q-4 -10 -16.5 -29.5t-20.5 -27.5z" />
<glyph unicode="9" horiz-adv-x="1302" d="M57 0h846q54 0 103 14h-938q-6 -6 -11 -14zM88 41h989q39 16 75 41.5t69 54.5h-1053q-20 -23 -39.5 -47t-40.5 -49zM197 170h1054q20 20 38 41.5t34 46.5h-1036q-23 -23 -45.5 -44t-44.5 -44zM285 592q0 -27 2 -37h1147q2 8 2 27v6v37h-1151v-33zM295 684h422 q-10 10 -13.5 21.5t-7.5 23.5l11 16h-385q-15 -28 -25 -59q0 -2 -2 -2zM303 502q27 -51 92 -76h1014q12 37 18 76h-1124zM360 813h1053q-6 27 -18 55h-996q-10 -14 -19.5 -27.5t-19.5 -27.5zM461 940h891q-23 29 -52 49h-784zM662 1069h407q-59 8 -133 12t-160 4h-16 q-49 0 -98 -16zM911 299h439q12 20 22.5 39.5t18.5 42.5h-400q-37 -55 -80 -82zM958 745q10 -14 20.5 -29.5t20.5 -31.5h433q0 16 -1.5 30.5t-3.5 30.5h-469z" />
<glyph unicode=":" horiz-adv-x="428" d="M102 96q0 -37 17 -55h221q55 39 78 96h-312q-4 -8 -4 -18v-23zM123 170h307q0 4 1 10t1 13q0 39 -26 65h-193q-59 -37 -90 -88zM150 14q23 -14 65 -14q39 0 74 14h-139zM295 625q4 -49 37 -70h166q10 4 18 9t16 11q29 21 52 50h-289zM305 684h311q8 18 9 43q0 4 -1 9 t-1 9h-277q-27 -30 -41 -61zM449 813h118q-25 10 -55 10q-28 0 -63 -10z" />
<glyph unicode=";" horiz-adv-x="428" d="M76 -2q0 -20 2 -42t6 -42h188q55 49 95 100h-291v-16zM76 41h305q4 4 8 16l29 80h-312l-28 -80q-2 -4 -2 -16zM92 -106q16 -41 55 -41h19q14 0 34.5 11t45.5 30h-154zM121 170h305q4 17 4 23q0 39 -27 65h-192q-59 -37 -90 -88zM295 625q4 -50 37 -70h162q53 23 88 66 l1 1t1 3h-289zM305 684h311q4 12 6.5 22.5t2.5 20.5q0 4 -1 9t-1 9h-277q-27 -31 -41 -61zM449 813h118q-24 10 -55 10q-29 0 -63 -10z" />
<glyph unicode="&#x3c;" horiz-adv-x="929" d="M246 555h438l80 70h-438zM252 502l31 -76h438l-31 76h-438zM301 381l33 -82h438l-33 82h-438zM350 258l37 -88h436l-35 88h-438zM393 684h438l70 61h-438zM399 137l41 -96h437l-39 96h-439zM451 14l6 -14h436l-6 14h-436zM539 813h438l63 55h-438zM682 940h438l56 49 h-439zM829 1069h439l18 16h-438z" />
<glyph unicode="=" horiz-adv-x="884" d="M115 209h618l51 49h-618zM209 299h618l88 82h-618zM254 592h618l35 33h-618zM344 426h619l63 59h-618zM350 684h619l65 61h-618zM487 813h619l59 55h-618z" />
<glyph unicode="&#x3e;" horiz-adv-x="929" d="M37 0h436l16 14h-436zM82 41h438l109 96h-439zM227 170h439l100 88h-438zM375 299h438l92 82h-438zM434 1085l6 -16h439l-7 16h-438zM473 989l19 -49h438l-19 49h-438zM518 426h438l86 76h-438zM520 868l23 -55h438l-23 55h-438zM571 745l25 -61h438l-24 61h-439z M621 625l28 -70h438l-28 70h-438z" />
<glyph unicode="?" horiz-adv-x="1339" d="M180 96q0 -37 17 -55h221q55 39 78 96h-312q-4 -8 -4 -18v-23zM201 170h307q0 4 1 10t1 13q0 39 -27 65h-192q-59 -37 -90 -88zM227 14q23 -14 66 -14q39 0 74 14h-140zM285 348h317v2q2 4 11.5 12.5t27.5 18.5h-332q-6 -10 -13 -17.5t-11 -15.5zM342 813h1247 q4 14 8.5 27.5t6.5 27.5h-1221q-12 -16 -21.5 -29.5t-19.5 -25.5zM350 426h809q35 14 72 33.5t72 42.5h-869q-23 -18 -44.5 -38t-39.5 -38zM442 940h1168q-2 12 -2 25q0 12 -4 24h-1117q-12 -12 -23.5 -24.5t-21.5 -24.5zM504 555h872q47 37 80 70h-838q-59 -31 -114 -70z M565 1069h985q-27 16 -63 16h-905zM1087 684h424q18 18 31 37l8 12t9 12h-394q-2 -8 -12 -18l-8 -10q0 -2 -12.5 -9.5t-20.5 -11.5q-4 -4 -11.5 -6t-13.5 -6z" />
<glyph unicode="@" horiz-adv-x="1538" d="M242 426h381q-2 8 -2 25v2q0 12 12 49h-385q-6 -41 -6 -76zM244 381q2 -23 4 -43.5t6 -38.5h446q-16 18 -32.5 38.5t-26.5 43.5h-397zM260 555h391q8 25 19 55q2 4 2 6q0 4 2 9h-389q-4 -8 -4 -13q-6 -16 -11.5 -29.5t-9.5 -27.5zM266 258q16 -51 39 -88h537q-8 0 -13 4 q-12 14 -35.5 34.5t-52.5 49.5h-475zM309 684h393q10 16 19.5 30.5t19.5 30.5h-399q-10 -16 -17.5 -30.5t-15.5 -30.5zM328 137q43 -57 100 -96h528q14 35 22.5 58.5t12.5 37.5h-663zM383 813h418q23 16 43 27.5t43 11.5h262q68 -12 108 -39h453q-2 14 -4 27.5t-6 27.5 h-1278q-10 -14 -19.5 -27.5t-19.5 -27.5zM469 14q74 -43 147.5 -61.5t120.5 -28.5h178q10 27 17.5 49.5l13.5 40.5h-477zM481 940h1188q-17 26 -37 49h-1102zM635 1069h881q-41 16 -83 26.5t-83 16.5h-627q-47 -16 -88 -43zM758 502q0 -45 14 -76h817q41 33 66 76h-897z M758 555h162q10 18 26.5 31.5t36.5 13.5q33 0 33 -29q0 2 -1 -2t-3 -14h133q0 2 4 6q10 45 10 60v4h-364q-27 -33 -35 -62q-2 -2 -2 -8zM807 381q16 -14 39.5 -23.5t56.5 -13.5h348q78 0 141.5 7t116.5 30h-702zM858 684h287q-27 49 -78 61h-76q-68 -14 -133 -61zM1262 555 h419q5 8 7 14q4 14 7 27.5t7 28.5h-379q-2 -6 -6 -15q-16 -39 -55 -55zM1317 745q14 -33 14 -61h381q2 12 3 25.5t1 27.5v6v2h-399z" />
<glyph unicode="A" d="M41 0h866q4 2 9.5 5t11.5 9h-883q0 6 -4 -14zM61 41h893q20 20 41 44.5t41 51.5h-899zM162 170h899q33 43 41 61l10 -61h371l-15 88h-1237zM262 299h426l62 82h-422zM362 426h422l56 76h-418zM463 555h418l51 70h-414zM563 684h414l45 61h-410zM666 813h718l-8 55h-667z M764 940h594q-4 12 -7 24.5t-8 24.5h-542q-14 -14 -19 -26zM887 1069h416q-16 16 -33 16h-344q-16 0 -39 -16zM1030 745l10 -61h363l-8 61h-365zM1049 625l10 -70h364l-10 70h-364zM1067 502l12 -76h363l-10 76h-365zM1085 381l13 -82h364l-12 82h-365zM1118 137l19 -96h366 l-16 96h-369zM1143 14l2 -14h364l-2 14h-364z" />
<glyph unicode="B" horiz-adv-x="1411" d="M57 0h940q107 0 177 14h-1113zM72 41h1188q39 16 67 39.5t53 56.5h-1274zM119 170h1284l22.5 40.5t22.5 47.5h-1298zM166 299h393l31 82h-395zM211 426h1278q-10 47 -33 76h-819l-6 -6l2 6h-393zM258 555h393l27 70h-393zM305 684h393l23 61h-393zM352 813h1247l-6 55 h-1220zM399 940h1180q-4 12 -9 24.5t-11 24.5h-1141zM446 1069h1031q-39 16 -84 16h-940zM696 555h770q18 14 36 30.5t34 39.5h-760zM1010 299h452q8 18 15.5 38.5t11.5 43.5h-416q0 -10 -4 -14l-4 -11q-2 -2 -10 -17l-8 -15q-6 -4 -16.5 -11.5t-20.5 -13.5zM1167 684h406 q16 28 22 61h-389l-2 -4q-4 -8 -15 -25.5t-22 -31.5z" />
<glyph unicode="C" horiz-adv-x="1292" d="M260 461q0 -18 4 -35h406q-10 18 -16.5 37.5t-10.5 38.5h-383v-4v-37zM262 555h381q2 12 6 25.5t8 29.5q2 4 2 6q0 4 3 9h-386q-4 -18 -7 -36t-7 -34zM270 381q8 -45 25 -82h489q-23 14 -45.5 35.5t-40.5 46.5h-428zM295 684h399q18 31 47 61h-419q-8 -16 -14.5 -30.5 t-12.5 -30.5zM315 258q31 -53 68 -88h885q16 23 32.5 44t32.5 44h-1018zM360 813h1033l61 55h-1055q-10 -14 -19.5 -27.5t-19.5 -27.5zM420 137q41 -35 90 -57.5t104 -38.5h535q49 43 92 96h-821zM465 940h1057l43 49h-1041q-16 -12 -30.5 -24.5t-28.5 -24.5zM682 1069h946 q4 4 12 16h-845q-54 0 -113 -16zM737 14q49 -8 99.5 -11t101.5 -3h164q6 4 16 14h-381z" />
<glyph unicode="D" horiz-adv-x="1347" d="M57 0h510q57 0 110.5 3t102.5 11h-719zM72 41h835q123 35 217 96h-1018zM119 170h1052q27 18 51.5 40.5t47.5 47.5h-1120zM166 299h397l29 82h-397zM211 426h397l29 76h-397zM258 555h397l27 70h-397zM305 684h397l23 61h-397zM352 813h1223q2 8 2 16v17q0 4 -1 10t-1 12 h-1202zM399 940h1166q-4 12 -9.5 24.5t-13.5 24.5h-1124zM446 1069h1000q-46 16 -103 16h-890zM727 299h582q16 18 32.5 38.5t32.5 43.5h-473q-84 -53 -174 -82zM965 426h442q10 16 21.5 33t23.5 35q4 4 6 8h-414q-16 -20 -36.5 -39t-42.5 -37zM1081 555h410q23 35 37 70 h-410l-6 -19q-12 -29 -31 -51zM1143 684h407q4 16 7.5 30.5t7.5 30.5h-416q2 -6 2 -18q0 -10 -2 -21.5t-6 -21.5z" />
<glyph unicode="E" horiz-adv-x="1280" d="M57 0h1030l5 3q6 3 14 11h-1045zM72 41h1065q23 20 48 44.5t48 51.5h-1127zM119 170h1145q4 4 8 10t8 10.5t18.5 27t24.5 40.5h-1173zM166 299h391l29 82h-391zM211 426h819l80 76h-469l-14 -15l4 15h-391zM258 555h393l25 70h-391zM305 684h393l23 61h-393zM352 813 h1037q12 6 28.5 20.5t36.5 34.5h-1081zM399 940h1119q10 12 19 24.5t19 24.5h-1138zM446 1069h1166l4 8l4 8h-1167zM696 555h469l74 70h-471z" />
<glyph unicode="F" horiz-adv-x="1271" d="M57 0h392l4 14h-392zM72 41h391l35 96h-392zM119 170h391l31 88h-391zM166 299h391l29 82h-391zM211 426h819l80 76h-469l-14 -15l4 15h-391zM258 555h393l25 70h-391zM305 684h393l23 61h-393zM352 813h1037q12 6 28.5 20.5t36.5 34.5h-1081zM399 940h1119 q10 12 19 24.5t19 24.5h-1138zM446 1069h1166l4 8l4 8h-1167zM696 555h469l74 70h-471z" />
<glyph unicode="G" horiz-adv-x="1310" d="M260 461q0 -18 4 -35h404q-19 35 -25 76h-383v-4v-37zM264 555h379q2 12 6 25.5t8 29.5q2 4 2 6q0 4 3 9h-386q-10 -37 -12 -70zM270 381q8 -45 25 -82h487q-23 14 -45.5 35.5t-40.5 46.5h-426zM295 684h397q10 16 20.5 31.5t22.5 29.5h-411q-8 -16 -15.5 -30.5 t-13.5 -30.5zM315 258q31 -53 68 -88h924l34 88h-1026zM360 813h1033l61 55h-1053q-10 -14 -20 -27.5t-21 -27.5zM420 137q41 -35 90 -57.5t104 -38.5h643l37 96h-874zM467 940h1055l43 49h-1041q-16 -12 -29.5 -24.5t-27.5 -24.5zM682 1069h946q4 4 12 16h-845 q-53 0 -113 -16zM737 14q49 -8 99.5 -11t101.5 -3h305l4 14h-510zM799 426h606l29 76h-580q-18 -25 -32.5 -44.5t-22.5 -31.5zM895 555h559l25 70h-525q-16 -16 -30.5 -34t-28.5 -36zM985 299h371l30 82h-372z" />
<glyph unicode="H" horiz-adv-x="1339" d="M57 0h394l4 14h-394zM72 41h393l35 96h-394zM119 170h393l31 88h-393zM166 299h393l29 82h-393zM211 426h1225l28 76h-800l-50 -51l19 51h-393zM258 555h393l27 70h-393zM305 684h393l23 61h-393zM352 813h393l21 55h-393zM399 940h394l18 49h-393zM446 1069h394l6 16 h-393zM715 555h768l26 70h-727zM893 0h389l4 14h-389zM907 41h389l35 96h-389zM954 170h389l31 88h-389zM1001 299h390l28 82h-389zM1141 684h389l22 61h-389zM1188 813h389l20 55h-389zM1235 940h389l18 49h-389zM1282 1069h389l6 16h-389z" />
<glyph unicode="I" horiz-adv-x="1261" d="M47 0h1022q14 0 31 14h-1047q-6 -10 -6 -12v-2zM72 41h1058q20 18 42 43t45 53h-1067q-23 -29 -42.5 -53.5t-35.5 -42.5zM176 170h1067q18 25 34.5 47.5t27.5 40.5h-1041q-20 -16 -42.5 -39.5t-45.5 -48.5zM342 813h1036q12 6 28.5 20.5t37.5 34.5h-1063q-33 -41 -39 -55 zM438 940h1069q10 12 19.5 24.5t19.5 24.5h-1065zM543 299h393l29 82h-394zM561 1069h1041l4 8l4 8h-1026q-6 -4 -11.5 -8t-11.5 -8zM588 426h393l29 76h-394zM635 555h393l27 70h-393zM682 684h393l23 61h-393z" />
<glyph unicode="J" horiz-adv-x="1173" d="M47 0h688q41 0 77 3t69 11h-826q-4 -6 -8 -14zM72 41h897q76 33 137 96h-971q-16 -25 -31.5 -48t-31.5 -48zM160 170h975q29 37 57 88h-956q-23 -23 -41.5 -44t-34.5 -44zM745 299h467q10 18 19.5 38.5t19.5 43.5h-411q-20 -25 -44 -46.5t-51 -35.5zM870 426h400 q6 18 13 36.5t15 39.5h-389l-8 -25q-11 -20 -31 -51zM930 555h387l24 70h-387zM977 684h387l22 61h-387zM1024 813h387l21 55h-390zM1069 940h389l19 49h-390zM1116 1069h389l6 16h-389z" />
<glyph unicode="K" horiz-adv-x="1429" d="M57 0h394l4 14h-394zM72 41h393l35 96h-394zM119 170h393l33 88h-395zM166 299h393l31 82h-395zM211 426h395l23 61l49 -61h481l-55 76h-864zM258 555h834l90 70h-477l-37 -27l10 27h-393zM305 684h393l23 61h-393zM352 813h393l21 55h-393zM399 940h394l18 49h-393z M446 1069h394l6 16h-393zM715 381l67 -82h469l-59 82h-477zM786 684h474l79 61h-467zM817 258l72 -88h457l-64 88h-465zM915 137l80 -96h443l-70 96h-453zM967 813h460l72 55h-457zM1018 14l12 -14h438l-10 14h-440zM1143 940h450l64 49h-447zM1323 1069h438l23 16h-438z " />
<glyph unicode="L" horiz-adv-x="1146" d="M57 0h899q4 4 8.5 7t8.5 7h-912zM72 41h929q23 23 44.5 46t44.5 50h-984zM119 170h997q23 29 41.5 51.5t28.5 36.5h-1036zM166 299h391l29 82h-391zM211 426h391l29 76h-391zM258 555h391l27 70h-391zM305 684h391l23 61h-391zM352 813h391l21 55h-391zM399 940h392 l18 49h-391zM446 1069h392l6 16h-391z" />
<glyph unicode="M" horiz-adv-x="1712" d="M57 0h394l4 14h-394zM72 41h393l35 96h-394zM119 170h393l31 88h-393zM166 299h393l29 82h-393zM211 426h393l29 76h-393zM258 555h393l21 55l10 -55h367l-13 70h-751zM305 684h719l-12 61h-684zM352 813h647l-10 55h-616zM399 940h576l-8 49h-549zM446 1069h504l-2 16 h-495zM692 502l15 -76h608l67 76h-690zM715 381l14 -82h469l76 82h-559zM737 258l17 -88h327l80 88h-424zM760 137l16 -96h187l88 96h-291zM782 14l2 -14h142l12 14h-156zM1065 555h367l51 55l-21 -55h393l27 70h-752zM1184 684h719l22 61h-684zM1262 0h393l4 14h-393z M1276 41h393l35 96h-393zM1303 813h647l20 55h-616zM1323 170h393l31 88h-393zM1370 299h393l29 82h-393zM1415 426h393l29 76h-393zM1419 940h578l18 49h-551zM1538 1069h506l6 16h-496z" />
<glyph unicode="N" horiz-adv-x="1339" d="M57 0h394l4 14h-394zM72 41h393l35 96h-394zM119 170h393l31 88h-393zM166 299h393l29 82h-393zM211 426h393l29 76h-393zM258 555h393l21 55l10 -55h367l-13 70h-751zM305 684h719l-12 61h-684zM352 813h647l-10 55h-616zM399 940h576l-8 49h-549zM446 1069h504l-2 16 h-495zM692 502l15 -76h729l28 76h-389l-10 -27l-6 27h-367zM715 381l14 -82h662l28 82h-704zM737 258l17 -88h589l31 88h-637zM760 137l18 -96h518l35 96h-571zM784 14l2 -14h496l4 14h-502zM1094 555h389l26 70h-389zM1141 684h389l22 61h-389zM1188 813h389l20 55h-389z M1235 940h389l18 49h-389zM1282 1069h389l6 16h-389z" />
<glyph unicode="O" horiz-adv-x="1476" d="M231 381q1 -45 7 -82h491q-45 29 -74 82h-424zM231 426h404q-12 37 -12 74v2h-383v-4q-4 -20 -6.5 -38t-2.5 -34zM248 258q8 -25 17 -47.5t24 -40.5h1106q49 43 86 88h-1233zM250 555h381q4 20 22 55q4 8 9 15h-390q-14 -39 -22 -70zM297 684h408q31 33 67 61h-440 q-10 -16 -18.5 -30.5t-16.5 -30.5zM313 137q59 -66 150 -96h717q94 35 174 96h-1041zM377 813h1257q-4 14 -7 27.5t-7 27.5h-1196q-12 -14 -24.5 -27.5t-22.5 -27.5zM502 940h1077q-23 27 -49 49h-961q-18 -12 -34.5 -24.5t-32.5 -24.5zM565 14q84 -14 191 -14h205 q70 0 129 14h-525zM748 1069h591q-45 8 -94 12t-104 4h-271q-56 0 -122 -16zM1006 299h505q25 37 52 82h-435q-29 -27 -61.5 -47.5t-60.5 -34.5zM1174 426h411q8 18 14.5 37t12.5 39h-389q-4 -6 -7.5 -13.5t-7.5 -13.5q-10 -23 -34 -49zM1221 745q16 -23 22 -61h399 q2 10 3 16v19v26h-424zM1241 555h385q2 8 3 15.5t3 17.5l6 37h-391q0 -16 -1 -33t-3 -33z" />
<glyph unicode="P" horiz-adv-x="1382" d="M57 0h394l4 14h-394zM72 41h393l35 96h-394zM119 170h393l33 88h-395zM166 299h393l31 82h-395zM211 426h1114q72 29 127 76h-815l-6 -6l2 6h-393zM258 555h393l27 70h-393zM305 684h393l23 61h-393zM352 813h1245q0 24 -6 55h-1218zM399 940h1174q-4 12 -10.5 24.5 t-12.5 24.5h-1132zM446 1069h1022q-37 16 -75 16h-940zM696 555h811q14 16 26.5 34t22.5 36h-780zM1167 684h416q8 26 12 61h-389l-2 -4q-4 -8 -15 -25.5t-22 -31.5z" />
<glyph unicode="Q" horiz-adv-x="1462" d="M233 381q1 -41 11 -82h485q-45 29 -74 82h-422zM233 426h402q-12 37 -12 74v2h-383v-4q-7 -37 -7 -72zM250 555h381q4 20 22 55q4 8 9 15h-392q-6 -16 -11 -35t-9 -35zM256 258q20 -53 49 -88h1069q45 39 84 88h-1202zM297 684h408q31 33 67 61h-442q-10 -16 -17.5 -30.5 t-15.5 -30.5zM334 137q68 -65 168 -96h884l-49 96h-1003zM377 813h1241q-4 14 -10 27.5t-13 27.5h-1173q-12 -14 -23.5 -27.5t-21.5 -27.5zM500 940h1048q-23 25 -53 49h-930q-16 -10 -32.5 -23.5t-32.5 -25.5zM610 14q47 -8 96.5 -11t102.5 -3h184l35 -57h410l-37 71h-791z M727 502l35 -76h807q10 18 18.5 37t14.5 39h-379q-4 -6 -7.5 -13.5t-7.5 -13.5q-4 -10 -9 -18t-9 -17l-33 62h-430zM743 1069h562q-78 16 -164 16h-271q-33 0 -63.5 -4t-63.5 -12zM782 381l37 -82h672q32 43 55 82h-764zM1204 745q20 -29 31 -61h399v10v25q0 14 -2 26h-428z M1241 555h377q2 8 3 15.5t3 17.5t3 18t1 19h-383v-21v-24q0 -18 -2 -21z" />
<glyph unicode="R" horiz-adv-x="1419" d="M57 0h394l4 14h-394zM72 41h393l35 96h-394zM119 170h393l31 88h-393zM166 299h393l27 74l10 8h-401zM211 426h981q63 10 124 27.5t114 48.5h-791l-10 -10l4 10h-393zM258 555h393l27 70h-393zM305 684h393l23 61h-393zM352 813h1237q0 14 -2 27.5t-4 27.5h-1210z M399 940h1166q-11 24 -25 49h-1122zM446 1069h1006q-39 16 -86 16h-913zM616 381l91 -82h469l-80 82h-480zM690 555h811q16 16 29.5 33t23.5 37h-794zM750 258l96 -88h457l-86 88h-467zM881 137l104 -96h442l-94 96h-452zM1014 14l16 -14h438l-14 14h-440zM1165 684h414 q4 14 6 29.5t4 31.5h-395q-2 -16 -8 -33.5t-21 -27.5z" />
<glyph unicode="S" horiz-adv-x="1351" d="M80 0h1044q39 0 70 14h-1106q-4 -6 -8 -14zM104 41h1137q55 37 96 96h-1163q-20 -27 -38 -51.5t-32 -44.5zM199 170h1159q12 23 22.5 44.5t18.5 43.5h-1127q-14 -14 -32 -36.5t-41 -51.5zM324 702q0 -8 2 -18h428q-13 6 -19 12q-4 4 -12 11.5t-8 9.5v10q0 10 2 18h-393 v-22v-21zM338 625q12 -35 31 -70h989q-10 20 -26 37t-32 33h-962zM342 813h1110l55 55h-1140q-8 -14 -13.5 -27.5t-11.5 -27.5zM406 502q43 -53 98 -76h901q-4 18 -8.5 38t-12.5 38h-978zM416 940h1159q10 12 20.5 24.5t20.5 24.5h-1159q-10 -12 -20.5 -24.5t-20.5 -24.5z M569 1069h1108q4 4 5.5 8t5.5 8h-1045q-35 0 -74 -16zM1026 299h383q2 10 3 22.5t1 22.5v12q0 16 -2 25h-385q4 -17 4 -25v-24q0 -23 -4 -33z" />
<glyph unicode="T" horiz-adv-x="1261" d="M342 813h1036q12 6 28.5 20.5t37.5 34.5h-1063q-33 -41 -39 -55zM434 0h393l4 14h-393zM438 940h1069q10 12 19.5 24.5t19.5 24.5h-1065zM449 41h393l35 96h-394zM496 170h393l31 88h-394zM543 299h393l29 82h-394zM561 1069h1041l4 8l4 8h-1026q-6 -4 -11.5 -8t-11.5 -8 zM588 426h393l29 76h-394zM635 555h393l27 70h-393zM682 684h393l23 61h-393z" />
<glyph unicode="U" horiz-adv-x="1396" d="M221 299h467q-37 25 -49 82h-412q-6 -47 -6 -80v-2zM223 258q5 -51 19 -88h1101q33 39 64 88h-1184zM236 426h399v2q0 20 10 66q0 2 -1 3t1 5h-391q-4 -20 -9 -39t-9 -37zM258 137q37 -63 127 -96h791q74 33 137 96h-1055zM270 555h389q4 12 10.5 29.5t12.5 40.5h-393 q-6 -18 -10.5 -36zM309 684h393q4 14 9.5 29.5t11.5 31.5h-391zM354 813h391q9 24 19 55h-389zM399 940h389q4 10 8.5 23.5l8.5 25.5h-387zM446 1069h388q2 4 3 8t3 8h-387zM494 14q47 -8 102 -11t123 -3h239q37 0 72 3t66 11h-602zM956 299h474q10 18 20 38.5t20 43.5h-411 q-20 -25 -46 -46.5t-57 -35.5zM1094 426h395q8 18 16.5 37t16.5 39h-389l-9 -25q-10 -20 -30 -51zM1153 555h387q4 6 5 12.5t5 12.5l17 45h-389zM1200 684h387l23 61h-387zM1247 813h387l21 55h-389zM1292 940h389l19 49h-389zM1339 1069h390l6 16h-389z" />
<glyph unicode="V" horiz-adv-x="1517" d="M432 1085l2 -16h357l-3 16h-356zM444 989l9 -49h354l-6 49h-357zM463 868l8 -55h352l-6 55h-354zM481 745l8 -61h353l-8 61h-353zM498 625l10 -70h350l-8 70h-352zM516 502l10 -76h351l-11 76h-350zM532 381l13 -82h733l63 82h-434l-20 -27l-4 27h-351zM551 258l8 -51 q2 -8 3 -17.5t5 -19.5h615l65 88h-696zM575 137q12 -55 35 -96h457q27 23 49.5 47.5t32.5 38.5l8 10h-582zM629 14q14 -14 33 -14h337q19 0 35 14h-405zM942 426h432l58 76h-433zM1040 555h433l53 70h-430zM1141 684h430l47 61h-428zM1241 813h428l41 55h-426zM1339 940h426 l37 49h-424zM1442 1069h422l12 16h-422z" />
<glyph unicode="W" horiz-adv-x="1785" d="M432 137q2 -27 5 -51.5t9 -44.5h330q18 23 35 48.5t29 39.5l6 8h-414zM432 170h436l62 88h-498v-72v-16zM432 299h526l58 82h-584v-82zM432 426h615l34 49q2 -14 3 -25.5t3 -23.5h631l49 76h-1335v-76zM432 555h338v70h-338v-70zM432 684h338v61h-338v-61zM432 813h338 v55h-338v-55zM432 940h338v49h-338v-49zM432 1069h338v16h-338v-16zM459 14q8 -14 20 -14h244q15 0 29 14h-293zM774 555h1028l45 70h-354l-25 -39l-4 39h-645zM858 684h602l-4 61h-559zM942 813h510l-4 55h-471zM1024 940h418l-2 49h-385zM1092 381q2 -23 4 -43.5t4 -38.5 h536l54 82h-598zM1104 258q4 -25 6 -47.5t4 -40.5h438l58 88h-506zM1108 1069h326v16h-316zM1118 137q8 -59 19 -96h321q20 23 39 48.5t29 39.5l4 8h-412zM1145 14q8 -14 20 -14h242q13 0 27 14h-289zM1530 684h354l41 61h-356zM1612 813h356l37 55h-358zM1692 940h358 l33 49h-361zM1774 1069h360l10 16h-360z" />
<glyph unicode="X" horiz-adv-x="1347" d="M37 0h436l16 14h-436zM82 41h436l111 96h-439zM227 170h439l100 88h-438zM375 299h815l-33 82h-690zM434 1085l6 -16h439l-7 16h-438zM473 989l19 -49h438l-21 49h-436zM518 426h621l-31 76h-504zM520 868l23 -55h852l63 55h-440l-43 -39l-17 39h-438zM571 745l25 -61 h653l70 61h-748zM621 625l28 -70h453l80 70h-561zM768 258l37 -88h436l-35 88h-438zM817 137l41 -96h436l-39 96h-438zM868 14l6 -14h437l-6 14h-437zM1100 940h438l55 49h-438zM1247 1069h439l18 16h-438z" />
<glyph unicode="Y" horiz-adv-x="1343" d="M432 1085l6 -16h439l-7 16h-438zM471 989l21 -49h436l-21 49h-436zM475 0h393l4 14h-393zM489 41h394l35 96h-394zM520 868l23 -55h850l63 55h-440l-43 -39l-17 39h-436zM537 170h393l33 88h-394zM569 745l25 -61h653l70 61h-748zM584 299h393l31 82h-394zM618 625 l29 -70h453l80 70h-562zM631 426h393l27 76h-394zM1098 940h438l55 49h-438zM1245 1069h438l19 16h-438z" />
<glyph unicode="Z" horiz-adv-x="1261" d="M47 0h1022q14 0 31 14h-1039zM90 41h1040q20 18 42 42.5t45 53.5h-1027zM223 170h1020q18 25 35 47.5t27 40.5h-990zM342 813h983l57 55h-1001q-33 -41 -39 -55zM358 299h428l86 82h-428zM438 940h1018l51 49h-1026zM492 426h428l79 76h-428zM561 1069h1030l19 16h-1026 q-6 -4 -11.5 -8t-11.5 -8zM627 555h428l71 70h-428zM762 684h428l63 61h-428z" />
<glyph unicode="[" horiz-adv-x="843" d="M16 -115h584l12 9h-594zM27 -86h608q23 20 49 45.5t53 54.5h-674zM72 41h690q8 10 15 18.5t14 16.5q4 4 16 23.5t24 37.5h-725zM119 170h391l33 88h-391zM166 299h391l31 82h-391zM213 426h391l27 76h-391zM260 555h391l25 70h-391zM307 684h391l23 61h-391zM354 813h391 l19 55h-391zM399 940h392l2 6h184q20 0 63 43h-624zM444 1069h668q10 10 18.5 21.5t16.5 21.5h-686zM492 1198h716q6 8 15 25h-721z" />
<glyph unicode="\" horiz-adv-x="1345" d="M432 1085l6 -16h439l-7 16h-438zM471 989l18 -49h439l-19 49h-438zM518 868l23 -55h438l-23 55h-438zM569 745l25 -61h438l-24 61h-439zM618 625l29 -70h436l-28 70h-437zM668 502l30 -76h439l-31 76h-438zM717 381l33 -82h438l-33 82h-438zM766 258l37 -88h436l-35 88 h-438zM815 137l41 -96h436l-39 96h-438zM866 14l6 -14h437l-6 14h-437z" />
<glyph unicode="]" horiz-adv-x="843" d="M23 -117h720l5 11h-721q-2 -2 -2 -5q0 -2 -2 -6zM41 -86h713l37 100h-678q-23 -27 -40.5 -52t-31.5 -48zM135 41h666l35 96h-609q-20 -16 -44.5 -41.5t-47.5 -54.5zM401 944h338l-2 -4h391l19 49h-719q-10 -16 -17.5 -28.5t-9.5 -16.5zM457 170h391l31 88h-392zM487 1069 h689l14 43h-662q-10 -10 -20.5 -21.5t-20.5 -21.5zM504 299h391l29 82h-392zM549 426h391l29 76h-391zM596 555h391l27 70h-391zM618 1198h605l8 23h-584q-6 0 -29 -23zM643 684h391l23 61h-391zM690 813h391l21 55h-391z" />
<glyph unicode="^" d="M41 0h436l10 14h-442q0 6 -4 -14zM61 41h445l72 96h-441zM162 170h438l66 88h-435zM262 299h432l62 82h-428zM362 426h426l56 76h-422zM463 555h420l51 70h-416zM563 684h414l45 61h-410zM666 813h718l-8 55h-667zM764 940h594q-4 12 -7.5 24.5t-7.5 24.5h-542 q-14 -14 -19 -26zM887 1069h416q-17 16 -33 16h-344q-16 0 -39 -16zM1032 745l8 -61h363l-8 61h-363zM1051 625l10 -70h362l-10 70h-362zM1069 502l10 -76h363l-10 76h-363zM1087 381l13 -82h362l-12 82h-363zM1106 258l12 -88h365l-15 88h-362zM1124 137l15 -96h364l-16 96 h-363zM1143 14l2 -14h364l-2 14h-364z" />
<glyph unicode="_" horiz-adv-x="946" d="M37 0h680l14 14h-680zM80 41h680l102 96h-680zM217 170h680l92 88h-680z" />
<glyph unicode="`" horiz-adv-x="348" d="M411 960.5q1 -10.5 5 -20.5h202q-2 10 -3 19.5t-1 19.5l-4 10h-192q-2 -2 -2 -6q-6 -12 -5 -22.5zM440 868q16 -23 43 -37t52 -14q18 0 22 4l12 8q12 4 20.5 15.5t14.5 23.5h-164zM492 1069h88q-11 16 -31 16q-12 0 -57 -16z" />
<glyph unicode="a" d="M41 0h866q4 2 9.5 5t11.5 9h-883q0 6 -4 -14zM61 41h893q20 20 41 44.5t41 51.5h-899zM162 170h899q33 43 41 61l10 -61h371l-15 88h-1237zM262 299h426l62 82h-422zM362 426h422l56 76h-418zM463 555h418l51 70h-414zM563 684h414l45 61h-410zM666 813h718l-8 55h-667z M764 940h594q-4 12 -7 24.5t-8 24.5h-542q-14 -14 -19 -26zM887 1069h416q-16 16 -33 16h-344q-16 0 -39 -16zM1030 745l10 -61h363l-8 61h-365zM1049 625l10 -70h364l-10 70h-364zM1067 502l12 -76h363l-10 76h-365zM1085 381l13 -82h364l-12 82h-365zM1118 137l19 -96h366 l-16 96h-369zM1143 14l2 -14h364l-2 14h-364z" />
<glyph unicode="b" horiz-adv-x="1411" d="M57 0h940q107 0 177 14h-1113zM72 41h1188q39 16 67 39.5t53 56.5h-1274zM119 170h1284l22.5 40.5t22.5 47.5h-1298zM166 299h393l31 82h-395zM211 426h1278q-10 47 -33 76h-819l-6 -6l2 6h-393zM258 555h393l27 70h-393zM305 684h393l23 61h-393zM352 813h1247l-6 55 h-1220zM399 940h1180q-4 12 -9 24.5t-11 24.5h-1141zM446 1069h1031q-39 16 -84 16h-940zM696 555h770q18 14 36 30.5t34 39.5h-760zM1010 299h452q8 18 15.5 38.5t11.5 43.5h-416q0 -10 -4 -14l-4 -11q-2 -2 -10 -17l-8 -15q-6 -4 -16.5 -11.5t-20.5 -13.5zM1167 684h406 q16 28 22 61h-389l-2 -4q-4 -8 -15 -25.5t-22 -31.5z" />
<glyph unicode="c" horiz-adv-x="1292" d="M260 461q0 -18 4 -35h406q-10 18 -16.5 37.5t-10.5 38.5h-383v-4v-37zM262 555h381q2 12 6 25.5t8 29.5q2 4 2 6q0 4 3 9h-386q-4 -18 -7 -36t-7 -34zM270 381q8 -45 25 -82h489q-23 14 -45.5 35.5t-40.5 46.5h-428zM295 684h399q18 31 47 61h-419q-8 -16 -14.5 -30.5 t-12.5 -30.5zM315 258q31 -53 68 -88h885q16 23 32.5 44t32.5 44h-1018zM360 813h1033l61 55h-1055q-10 -14 -19.5 -27.5t-19.5 -27.5zM420 137q41 -35 90 -57.5t104 -38.5h535q49 43 92 96h-821zM465 940h1057l43 49h-1041q-16 -12 -30.5 -24.5t-28.5 -24.5zM682 1069h946 q4 4 12 16h-845q-54 0 -113 -16zM737 14q49 -8 99.5 -11t101.5 -3h164q6 4 16 14h-381z" />
<glyph unicode="d" horiz-adv-x="1347" d="M57 0h510q59 0 112.5 3t102.5 11h-721zM72 41h835q119 35 213 96h-1014zM119 170h1046q27 18 51.5 40.5t49.5 47.5h-1116zM166 299h397l29 82h-397zM211 426h397l29 76h-397zM258 555h397l27 70h-397zM305 684h397l23 61h-397zM352 813h1223q2 8 2 16v17q0 4 -1 10t-1 12 h-1202zM399 940h1166q-4 12 -9.5 24.5t-13.5 24.5h-1124zM446 1069h1000q-46 16 -103 16h-890zM731 299h572q16 18 33.5 38.5t33.5 43.5h-467q-41 -27 -85 -47.5t-87 -34.5zM967 426h436q10 16 22.5 31.5t22.5 31.5q2 4 4 6.5t4 6.5h-412q-16 -20 -35.5 -39t-41.5 -37z M1085 555h406q10 16 18.5 34t16.5 36h-406l-6 -19q-6 -16 -13 -28.5t-16 -22.5zM1143 684h405q4 16 8.5 30.5t8.5 30.5h-416q2 -6 2 -18q0 -25 -8 -43z" />
<glyph unicode="e" horiz-adv-x="1280" d="M57 0h1030l5 3q6 3 14 11h-1045zM72 41h1065q23 20 48 44.5t48 51.5h-1127zM119 170h1145q4 4 8 10t8 10.5t18.5 27t24.5 40.5h-1173zM166 299h391l29 82h-391zM211 426h819l80 76h-469l-14 -15l4 15h-391zM258 555h393l25 70h-391zM305 684h393l23 61h-393zM352 813 h1037q12 6 28.5 20.5t36.5 34.5h-1081zM399 940h1119q10 12 19 24.5t19 24.5h-1138zM446 1069h1166l4 8l4 8h-1167zM696 555h469l74 70h-471z" />
<glyph unicode="f" horiz-adv-x="1271" d="M57 0h392l4 14h-392zM72 41h391l35 96h-392zM119 170h391l31 88h-391zM166 299h391l29 82h-391zM211 426h819l80 76h-469l-14 -15l4 15h-391zM258 555h393l25 70h-391zM305 684h393l23 61h-393zM352 813h1037q12 6 28.5 20.5t36.5 34.5h-1081zM399 940h1119 q10 12 19 24.5t19 24.5h-1138zM446 1069h1166l4 8l4 8h-1167zM696 555h469l74 70h-471z" />
<glyph unicode="g" horiz-adv-x="1310" d="M260 461q0 -18 4 -35h404q-19 35 -25 76h-383v-4v-37zM264 555h379q2 12 6 25.5t8 29.5q2 4 2 6q0 4 3 9h-386q-10 -37 -12 -70zM270 381q8 -45 25 -82h487q-23 14 -45.5 35.5t-40.5 46.5h-426zM295 684h397q10 16 20.5 31.5t22.5 29.5h-411q-8 -16 -15.5 -30.5 t-13.5 -30.5zM315 258q31 -53 68 -88h924l34 88h-1026zM360 813h1033l61 55h-1053q-10 -14 -20 -27.5t-21 -27.5zM420 137q41 -35 90 -57.5t104 -38.5h643l37 96h-874zM467 940h1055l43 49h-1041q-16 -12 -29.5 -24.5t-27.5 -24.5zM682 1069h946q4 4 12 16h-845 q-53 0 -113 -16zM737 14q49 -8 99.5 -11t101.5 -3h305l4 14h-510zM799 426h606l29 76h-580q-18 -25 -32.5 -44.5t-22.5 -31.5zM895 555h559l25 70h-525q-16 -16 -30.5 -34t-28.5 -36zM985 299h371l30 82h-372z" />
<glyph unicode="h" horiz-adv-x="1339" d="M57 0h394l4 14h-394zM72 41h393l35 96h-394zM119 170h393l31 88h-393zM166 299h393l29 82h-393zM211 426h1225l28 76h-800l-50 -51l19 51h-393zM258 555h393l27 70h-393zM305 684h393l23 61h-393zM352 813h393l21 55h-393zM399 940h394l18 49h-393zM446 1069h394l6 16 h-393zM715 555h768l26 70h-727zM893 0h389l4 14h-389zM907 41h389l35 96h-389zM954 170h389l31 88h-389zM1001 299h390l28 82h-389zM1141 684h389l22 61h-389zM1188 813h389l20 55h-389zM1235 940h389l18 49h-389zM1282 1069h389l6 16h-389z" />
<glyph unicode="i" horiz-adv-x="516" d="M61 0h394l4 14h-393zM76 41h393l35 96h-393zM123 170h393l31 88h-393zM170 299h393l29 82h-393zM215 426h393l29 76h-393zM262 555h393l27 70h-393zM309 684h393l23 61h-393zM356 813h394l20 55h-393zM403 940h394l18 49h-393zM451 1069h393l6 16h-393z" />
<glyph unicode="j" horiz-adv-x="1173" d="M47 0h688q41 0 77 3t69 11h-826q-4 -6 -8 -14zM72 41h897q76 33 137 96h-971q-16 -25 -31.5 -48t-31.5 -48zM160 170h975q29 37 57 88h-956q-23 -23 -41.5 -44t-34.5 -44zM745 299h467q10 18 19.5 38.5t19.5 43.5h-411q-20 -25 -44 -46.5t-51 -35.5zM870 426h400 q6 18 13 36.5t15 39.5h-389l-8 -25q-11 -20 -31 -51zM930 555h387l24 70h-387zM977 684h387l22 61h-387zM1024 813h387l21 55h-390zM1069 940h389l19 49h-390zM1116 1069h389l6 16h-389z" />
<glyph unicode="k" horiz-adv-x="1429" d="M57 0h394l4 14h-394zM72 41h393l35 96h-394zM119 170h393l33 88h-395zM166 299h393l31 82h-395zM211 426h395l23 61l49 -61h481l-55 76h-864zM258 555h834l90 70h-477l-37 -27l10 27h-393zM305 684h393l23 61h-393zM352 813h393l21 55h-393zM399 940h394l18 49h-393z M446 1069h394l6 16h-393zM715 381l67 -82h469l-59 82h-477zM786 684h474l79 61h-467zM817 258l72 -88h457l-64 88h-465zM915 137l80 -96h443l-70 96h-453zM967 813h460l72 55h-457zM1018 14l12 -14h438l-10 14h-440zM1143 940h450l64 49h-447zM1323 1069h438l23 16h-438z " />
<glyph unicode="l" horiz-adv-x="1146" d="M57 0h899q4 4 8.5 7t8.5 7h-912zM72 41h929q23 23 44.5 46t44.5 50h-984zM119 170h997q23 29 41.5 51.5t28.5 36.5h-1036zM166 299h391l29 82h-391zM211 426h391l29 76h-391zM258 555h391l27 70h-391zM305 684h391l23 61h-391zM352 813h391l21 55h-391zM399 940h392 l18 49h-391zM446 1069h392l6 16h-391z" />
<glyph unicode="m" horiz-adv-x="1712" d="M57 0h394l4 14h-394zM72 41h393l35 96h-394zM119 170h393l31 88h-393zM166 299h393l29 82h-393zM211 426h393l29 76h-393zM258 555h393l21 55l10 -55h367l-13 70h-751zM305 684h719l-12 61h-684zM352 813h647l-10 55h-616zM399 940h576l-8 49h-549zM446 1069h504l-2 16 h-495zM692 502l15 -76h608l67 76h-690zM715 381l14 -82h469l76 82h-559zM737 258l17 -88h327l80 88h-424zM760 137l16 -96h187l88 96h-291zM782 14l2 -14h142l12 14h-156zM1065 555h367l51 55l-21 -55h393l27 70h-752zM1184 684h719l22 61h-684zM1262 0h393l4 14h-393z M1276 41h393l35 96h-393zM1303 813h647l20 55h-616zM1323 170h393l31 88h-393zM1370 299h393l29 82h-393zM1415 426h393l29 76h-393zM1419 940h578l18 49h-551zM1538 1069h506l6 16h-496z" />
<glyph unicode="n" horiz-adv-x="1339" d="M57 0h394l4 14h-394zM72 41h393l35 96h-394zM119 170h393l31 88h-393zM166 299h393l29 82h-393zM211 426h393l29 76h-393zM258 555h393l21 55l10 -55h367l-13 70h-751zM305 684h719l-12 61h-684zM352 813h647l-10 55h-616zM399 940h576l-8 49h-549zM446 1069h504l-2 16 h-495zM692 502l15 -76h729l28 76h-389l-10 -27l-6 27h-367zM715 381l14 -82h662l28 82h-704zM737 258l17 -88h589l31 88h-637zM760 137l18 -96h518l35 96h-571zM784 14l2 -14h496l4 14h-502zM1094 555h389l26 70h-389zM1141 684h389l22 61h-389zM1188 813h389l20 55h-389z M1235 940h389l18 49h-389zM1282 1069h389l6 16h-389z" />
<glyph unicode="o" horiz-adv-x="1511" d="M231 381q1 -45 7 -82h491q-45 29 -74 82h-424zM231 426h404q-12 37 -12 74v2h-383v-4q-4 -20 -6.5 -38t-2.5 -34zM248 258q8 -25 17 -47.5t24 -40.5h1134q49 39 88 88h-1263zM250 555h381q4 20 22 55q4 8 9 15h-390q-8 -16 -13 -35t-9 -35zM299 684h406q31 33 67 61h-440 q-10 -16 -17.5 -30.5t-15.5 -30.5zM313 137q59 -66 150 -96h747q94 35 174 96h-1071zM379 813h1286q-6 27 -18 55h-1221q-12 -14 -24.5 -27.5t-22.5 -27.5zM504 940h1100q-23 27 -50 49h-983zM565 14q84 -14 191 -14h239q70 0 129 14h-559zM748 1069h612q-88 16 -184 16 h-306q-56 0 -122 -16zM1038 299h504q16 20 28.5 39.5t24.5 42.5h-434q-31 -27 -62.5 -47.5t-60.5 -34.5zM1208 426h410q8 18 15.5 37t13.5 39h-390q-4 -6 -7 -13.5t-7 -13.5q-10 -23 -35 -49zM1255 745q16 -23 23 -61h399v23v18q0 10 -2 20h-420zM1276 555h385q2 8 3 15.5 t3 17.5l6 37h-391q0 -16 -1 -33t-3 -33z" />
<glyph unicode="p" horiz-adv-x="1382" d="M57 0h394l4 14h-394zM72 41h393l35 96h-394zM119 170h393l33 88h-395zM166 299h393l31 82h-395zM211 426h1114q72 29 127 76h-815l-6 -6l2 6h-393zM258 555h393l27 70h-393zM305 684h393l23 61h-393zM352 813h1245q0 12 -2 25.5t-6 29.5h-1216zM399 940h1170 q-11 24 -25 49h-1126zM446 1069h1016q-33 16 -69 16h-940zM698 555h809q14 16 26.5 34t22.5 36h-780zM1167 684h416q8 26 12 61h-389l-2 -4q-4 -8 -15 -25.5t-22 -31.5z" />
<glyph unicode="q" horiz-adv-x="1456" d="M233 381q1 -41 11 -82h485q-45 29 -74 82h-422zM233 426h402q-12 37 -12 74v2h-383v-4q-7 -37 -7 -72zM252 555h379q4 20 22 55q4 8 9 15h-390q-6 -16 -11 -35t-9 -35zM256 258q20 -53 49 -88h1069q45 39 84 88h-1202zM299 684h406q31 33 67 61h-438q-10 -16 -18.5 -30.5 t-16.5 -30.5zM334 137q68 -65 168 -96h884l-49 96h-1003zM381 813h1237q-4 14 -10 27.5t-13 27.5h-1167q-12 -14 -24.5 -27.5t-22.5 -27.5zM504 940h1044q-23 25 -53 49h-924zM610 14q47 -8 96.5 -11t102.5 -3h184l35 -57h410l-37 71h-791zM727 502l35 -76h807 q10 18 18.5 37t14.5 39h-379q-4 -6 -7.5 -13.5t-7.5 -13.5q-4 -10 -9 -18t-9 -17l-33 62h-430zM748 1069h557q-78 16 -164 16h-271q-56 0 -122 -16zM782 381l37 -82h672q32 43 55 82h-764zM1204 745q20 -29 31 -61h399v10v25q0 14 -2 26h-428zM1241 555h377q2 8 3 15.5 t3 17.5t3 18t1 19h-383v-21v-24q0 -18 -2 -21z" />
<glyph unicode="r" horiz-adv-x="1431" d="M57 0h394l4 14h-394zM72 41h393l35 96h-394zM119 170h393l31 88h-393zM166 299h393l27 74l10 8h-401zM211 426h981q63 10 124 27.5t114 48.5h-791l-10 -10l4 10h-393zM258 555h393l27 70h-393zM305 684h393l23 61h-393zM352 813h1237q0 14 -1 27.5t-3 27.5h-1212z M399 940h1168q-4 12 -9.5 24.5t-11.5 24.5h-1128zM446 1069h1010q-39 16 -90 16h-913zM616 381l91 -82h469l-80 82h-480zM692 555h809q16 16 29.5 33t23.5 37h-794zM750 258l96 -88h457l-86 88h-467zM881 137l104 -96h442l-94 96h-452zM1014 14l16 -14h438l-14 14h-440z M1165 684h414q4 14 6 29.5t4 31.5h-395q-2 -16 -8 -33.5t-21 -27.5z" />
<glyph unicode="s" horiz-adv-x="1351" d="M80 0h1044q39 0 70 14h-1106q-4 -6 -8 -14zM104 41h1137q55 37 96 96h-1163q-20 -27 -38 -51.5t-32 -44.5zM199 170h1159q12 23 22.5 44.5t18.5 43.5h-1127q-14 -14 -32 -36.5t-41 -51.5zM324 702q0 -8 2 -18h428q-13 6 -19 12q-4 4 -12 11.5t-8 9.5v10q0 10 2 18h-393 v-22v-21zM338 625q12 -35 31 -70h991q-10 20 -25.5 37t-31.5 33h-965zM342 813h1110l55 55h-1140q-8 -14 -13.5 -27.5t-11.5 -27.5zM406 502q43 -53 98 -76h903q-4 18 -9.5 38t-11.5 38h-980zM416 940h1159q10 12 20.5 24.5t20.5 24.5h-1159q-10 -12 -20.5 -24.5 t-20.5 -24.5zM569 1069h1108q4 4 5.5 8t5.5 8h-1045q-35 0 -74 -16zM1026 299h383q2 10 3 22.5t1 22.5v12q0 16 -2 25h-385q4 -17 4 -25v-24q0 -23 -4 -33z" />
<glyph unicode="t" horiz-adv-x="1261" d="M342 813h1036q12 6 28.5 20.5t37.5 34.5h-1063q-33 -41 -39 -55zM434 0h393l4 14h-393zM438 940h1069q10 12 19.5 24.5t19.5 24.5h-1065zM449 41h393l35 96h-394zM496 170h393l31 88h-394zM543 299h393l29 82h-394zM561 1069h1041l4 8l4 8h-1026q-6 -4 -11.5 -8t-11.5 -8 zM588 426h393l29 76h-394zM635 555h393l27 70h-393zM682 684h393l23 61h-393z" />
<glyph unicode="u" horiz-adv-x="1396" d="M217 299h477q-41 27 -55 82h-418q-4 -23 -4 -39v-35v-8zM219 258q2 -25 7.5 -47.5t13.5 -40.5h1103q33 39 64 88h-1188zM229 426h406v2q0 20 10 66q0 2 -1 3t1 5h-395q-6 -20 -11.5 -39t-9.5 -37zM256 137q39 -61 129 -96h791q74 33 137 96h-1057zM268 555h391 q4 12 10.5 29.5t12.5 40.5h-393q-6 -18 -10.5 -36t-10.5 -34zM309 684h393q4 14 9.5 29.5t11.5 31.5h-391zM354 813h391q9 24 19 55h-389zM399 940h389q4 10 8.5 23.5l8.5 25.5h-387zM446 1069h388q2 4 3 8t3 8h-387zM498 14q47 -8 101 -11t120 -3h239q37 0 72 3t66 11h-598 zM956 299h474q10 18 20 38.5t20 43.5h-411q-20 -25 -46 -46.5t-57 -35.5zM1094 426h395q8 18 16.5 37t16.5 39h-389l-9 -25q-10 -20 -30 -51zM1153 555h387q4 6 5 12.5t5 12.5l17 45h-389zM1200 684h387l23 61h-387zM1247 813h387l21 55h-389zM1292 940h389l19 49h-389z M1339 1069h390l6 16h-389z" />
<glyph unicode="v" horiz-adv-x="1517" d="M432 1085l2 -16h357l-3 16h-356zM444 989l9 -49h354l-6 49h-357zM463 868l8 -55h352l-6 55h-354zM481 745l8 -61h353l-8 61h-353zM498 625l10 -70h350l-8 70h-352zM516 502l10 -76h351l-11 76h-350zM532 381l13 -82h733l63 82h-434l-20 -27l-4 27h-351zM551 258l8 -51 q2 -8 3 -17.5t5 -19.5h615l65 88h-696zM575 137q12 -55 35 -96h457q27 23 49.5 47.5t32.5 38.5l8 10h-582zM629 14q14 -14 33 -14h337q19 0 35 14h-405zM942 426h432l58 76h-433zM1040 555h433l53 70h-430zM1141 684h430l47 61h-428zM1241 813h428l41 55h-426zM1339 940h426 l37 49h-424zM1442 1069h422l12 16h-422z" />
<glyph unicode="w" horiz-adv-x="1785" d="M180 258q0 -47 23 -88h1587l31 88h-1641zM180 299h539q-31 4 -54.5 20.5t-31.5 61.5h-436q-6 -23 -10.5 -42.5t-6.5 -39.5zM213 426h418q0 10 5 31.5t11 44.5h-405zM221 137q20 -29 53 -54.5t80 -41.5h1389l35 96h-1557zM260 555h399l25 70h-397zM307 684h398l20 61h-395 zM354 813h394l18 55h-391zM401 940h390l16 49h-387zM449 1069h385l6 16h-385zM453 14q72 -14 180 -14h1096l4 14h-1280zM811 299h389l31 82h-389zM858 426h389l27 76h-389zM905 555h389l25 70h-389zM952 684h389l23 61h-389zM999 813h390l18 55h-389zM1044 940h390l18 49 h-389zM1092 1069h389l6 16h-389zM1448 299h389l29 82h-387zM1495 426h387l29 76h-389zM1542 555h387l27 70h-389zM1589 684h387l23 61h-387zM1636 813h387l21 55h-389zM1681 940h390l18 49h-389zM1729 1069h389l6 16h-389z" />
<glyph unicode="x" horiz-adv-x="1347" d="M37 0h436l16 14h-436zM82 41h436l111 96h-439zM227 170h439l100 88h-438zM375 299h815l-33 82h-690zM434 1085l6 -16h439l-7 16h-438zM473 989l19 -49h438l-21 49h-436zM518 426h621l-31 76h-504zM520 868l23 -55h852l63 55h-440l-43 -39l-17 39h-438zM571 745l25 -61 h653l70 61h-748zM621 625l28 -70h453l80 70h-561zM768 258l37 -88h436l-35 88h-438zM817 137l41 -96h436l-39 96h-438zM868 14l6 -14h437l-6 14h-437zM1100 940h438l55 49h-438zM1247 1069h439l18 16h-438z" />
<glyph unicode="y" horiz-adv-x="1343" d="M432 1085l6 -16h439l-7 16h-438zM471 989l21 -49h436l-21 49h-436zM475 0h393l4 14h-393zM489 41h394l35 96h-394zM520 868l23 -55h850l63 55h-440l-43 -39l-17 39h-436zM537 170h393l33 88h-394zM569 745l25 -61h653l70 61h-748zM584 299h393l31 82h-394zM618 625 l29 -70h453l80 70h-562zM631 426h393l27 76h-394zM1098 940h438l55 49h-438zM1245 1069h438l19 16h-438z" />
<glyph unicode="z" horiz-adv-x="1261" d="M47 0h1022q14 0 31 14h-1039zM90 41h1040q20 18 42 42.5t45 53.5h-1027zM223 170h1020q18 25 35 47.5t27 40.5h-990zM342 813h983l57 55h-1001q-33 -41 -39 -55zM358 299h428l86 82h-428zM438 940h1018l51 49h-1026zM492 426h428l79 76h-428zM561 1069h1030l19 16h-1026 q-6 -4 -11.5 -8t-11.5 -8zM627 555h428l71 70h-428zM762 684h428l63 61h-428z" />
<glyph unicode="{" horiz-adv-x="1136" d="M211 426h686l27 76h-633zM309 -115h584l12 9h-594zM319 -86h609q23 20 49 45.5t53 54.5h-674zM346 555h598l25 70h-549zM365 41h690q8 10 15 18.5t13 16.5q4 4 16.5 23.5t24.5 37.5h-725zM412 170h391l33 88h-392zM459 299h391l31 82h-394zM598 684h393l23 61h-393z M645 813h393l19 55h-391zM692 940h391l2 6h185q20 0 63 43h-624zM737 1069h668q10 10 18.5 21.5t16.5 21.5h-686zM784 1198h717q6 8 15 25h-721z" />
<glyph unicode="|" horiz-adv-x="507" d="M-47 -289h393l21 60h-392zM-20 -215h393l39 109h-394zM25 -86h393l37 100h-394zM72 41h393l35 96h-394zM119 170h393l31 88h-393zM166 299h393l29 82h-393zM211 426h393l29 76h-393zM258 555h393l27 70h-393zM305 684h393l23 61h-393zM352 813h393l21 55h-393zM399 940 h394l16 49h-393zM444 1069h394l16 43h-393zM492 1198h393l12 35h-393zM539 1327h393l10 29h-393z" />
<glyph unicode="}" horiz-adv-x="1136" d="M23 -117h720l5 11h-721q-2 -2 -2 -5q0 -2 -2 -6zM41 -86h713l37 100h-678q-23 -27 -40.5 -52t-31.5 -48zM135 41h666l35 96h-609q-20 -16 -44.5 -41.5t-47.5 -54.5zM401 944h338l-2 -4h391l19 49h-719q-10 -16 -17.5 -28.5t-9.5 -16.5zM457 170h391l31 88h-392zM487 1069 h689l14 43h-662q-10 -10 -20.5 -21.5t-20.5 -21.5zM504 299h391l29 82h-392zM549 426h391l2 4h121l76 72h-561zM596 555h600l74 70h-647zM618 1198h605l8 23h-584q-6 0 -29 -23zM643 684h690l25 23h-314l15 38h-393zM690 813h393l21 55h-393z" />
<glyph unicode="~" horiz-adv-x="845" d="M209 426h201l71 76h-198zM334 555h379l-33 70h-279zM532 502l37 -76h240q2 0 4 2q23 23 39 40t33 34h-353zM737 555h201q23 23 39.5 40.5t28.5 29.5h-203z" />
<glyph horiz-adv-x="358" />
<glyph unicode="&#xa1;" horiz-adv-x="507" d="M57 0h394l4 14h-394zM72 41h393l35 96h-394zM119 170h393l31 88h-393zM166 299h393l29 82h-393zM211 426h393l29 76h-393zM258 555h393l27 70h-393zM305 684h393l21 51h-393zM438 868q8 -37 43 -55h146q49 20 82 55h-271zM442 940h312q2 0 2 2q8 23 8 47h-295 q-14 -20 -25 -47q0 -2 -2 -2zM573 1069h148q-29 16 -68 16q-41 0 -80 -16z" />
<glyph unicode="&#xa2;" horiz-adv-x="1292" d="M260 459q0 -17 4 -33h404q-10 18 -16.5 37.5t-8.5 38.5h-383v-4v-39zM262 555h381q2 12 6 25.5t8 29.5q2 4 2 6q0 4 3 9h-386q-4 -18 -7 -36t-7 -34zM270 381q11 -47 25 -82h725l29 82h-258l-25 -70q-39 29 -70 70h-426zM295 684h397q10 16 20.5 31.5t22.5 29.5h-413 q-8 -16 -14.5 -30.5t-12.5 -30.5zM315 258q14 -25 30 -47.5t36 -40.5h887q16 23 32.5 44.5t32.5 43.5h-1018zM360 813h1033l61 55h-1055q-10 -14 -19.5 -27.5t-19.5 -27.5zM418 137q41 -35 90 -57.5t104 -38.5h537q49 43 92 96h-823zM465 940h1057l43 49h-1041 q-16 -12 -30.5 -24.5t-28.5 -24.5zM547 -291h258l22 62h-258zM573 -215h258l41 109h-258zM621 -86h258l32 86h191q6 4 16 14h-461zM682 1069h946q4 4 12 16h-333l8 27h-258l-8 -27h-254q-54 0 -113 -16zM807 426h258l29 76h-258zM854 555h258l27 70h-258zM901 684h258l23 61 h-258zM1090 1198h258l12 35h-258zM1135 1327h258l10 29h-258z" />
<glyph unicode="&#xa3;" horiz-adv-x="1380" d="M37 0h1306v14h-1292zM80 41h1266q2 25 3 49t1 47h-1168zM217 170h1133q-2 25 -4.5 46.5t-6.5 41.5h-1030zM221 426h1094l-31 76h-983zM358 555h904l-29 70h-801zM459 299h452q-4 6 -8 13t-8 12l-1 4t-3 6l4 10q4 4 8 14.5t12 22.5h-423q-10 -16 -14.5 -30.5t-8.5 -26.5z M621 684h411q0 16 2 31.5t6 25.5l2 4h-395q-6 -12 -11 -25t-11 -26q-4 -8 -4 -10zM696 813h551q4 14 5 27.5t3 27.5h-510q-29 -30 -49 -55zM823 940h434v49h-374q-16 -12 -31 -24.5t-29 -24.5zM1022 1069h225q0 4 -1 8t-1 8h-143q-35 0 -80 -16z" />
<glyph unicode="&#xa4;" horiz-adv-x="1347" d="M37 0h436l16 14h-436zM82 41h438l109 96h-436zM229 170h437l61 53h57l21 -53h436l-37 88h-874zM375 299h813l-10 29q16 12 30.5 24.5t26.5 28.5h-813q8 -20 14 -29l-2 -2zM407 460.5q1 -18.5 3 -34.5h299q-31 31 -41 76h-258q-4 -23 -3 -41.5zM418 555h252q4 6 7 13t7 16 q14 23 31 41h-269q-10 -18 -17 -36t-11 -34zM434 1085l6 -16h439l-7 16h-438zM473 989l21 -49h436l-19 49h-438zM487 684h304q16 8 31.5 13t31.5 5h111q25 0 42 -5t29 -13h295q-4 16 -9 29.5t-11 25.5l6 6h-772q-16 -16 -31 -30.5t-27 -30.5zM522 868l23 -55h850l61 55h-436 l-2 -2h-57l-3 2h-436zM819 137l39 -96h436l-41 96h-434zM868 14l6 -14h437l-6 14h-437zM975 426h297q29 39 43 76h-260q-27 -43 -80 -76zM1075 625q4 -16 4 -35q0 -18 -2 -35h254q2 4 2 8t2 8q2 14 3 27.5t1 26.5h-264zM1100 940h438l55 49h-438zM1247 1069h439l18 16h-438z " />
<glyph unicode="&#xa5;" horiz-adv-x="1343" d="M195 129h327l-33 -88h394l32 88h129l13 8h-850zM258 170h850l137 88h-850zM276 354h328l-20 -55h393l20 55h129l41 27h-850zM389 426h850l117 76h-850zM432 1085l6 -16h439l-7 16h-438zM471 989l18 -49h439l-21 49h-436zM475 0h393l4 14h-393zM518 868l23 -55h852l63 55 h-440l-43 -39l-17 39h-438zM569 745l25 -61h653l70 61h-748zM618 625l27 -70h455l80 70h-562zM1098 940h438l55 49h-438zM1245 1069h438l19 16h-438z" />
<glyph unicode="&#xa6;" horiz-adv-x="507" d="M-47 -289h393l21 60h-392zM-20 -215h393l39 109h-394zM25 -86h393l37 100h-394zM72 41h393l35 96h-394zM119 170h393l31 88h-393zM166 299h393l29 82h-393zM211 426h393l29 76h-393zM258 555h393l27 70h-393zM305 684h393l23 61h-393zM352 813h393l21 55h-393zM399 940 h394l16 49h-393zM444 1069h394l16 43h-393zM492 1198h393l12 35h-393zM539 1327h393l10 29h-393z" />
<glyph unicode="&#xa7;" horiz-adv-x="1347" d="M37 0h436l16 14h-436zM82 41h438l109 96h-436zM229 170h437l61 53h57q128 0 232 35h-686zM375 299h745q16 6 29.5 13t28.5 16q30 24 59 53h-815q8 -20 14 -29zM407 460.5q1 -18.5 3 -34.5h299q-31 31 -41 76h-258q-4 -23 -3 -41.5zM418 555h254l12 29q14 23 31 41h-269 q-8 -12 -13 -24.5t-9 -25.5q-2 -8 -6 -20zM487 684h304q16 8 31.5 13t31.5 5h111q25 0 42 -5t29 -13h295q-4 16 -9 29.5t-11 25.5l6 6h-772q-16 -16 -31 -30.5t-27 -30.5zM655 813h740l61 55h-436l-2 -2h-57q-80 0 -157 -11t-149 -42zM975 426h297q29 39 43 76h-260 q-27 -43 -80 -76zM1075 625q4 -16 4 -35q0 -18 -2 -35h252q2 4 6 16q2 14 3 27.5t1 26.5h-264zM1100 940h438l55 49h-438zM1247 1069h439l18 16h-438z" />
<glyph unicode="&#xa8;" horiz-adv-x="745" d="M401 940h254l13 25l6 24h-256q-8 -16 -10 -24q-6 -12 -7 -25zM422 868q25 -24 72 -24t88 24h-160zM508 1069h133q-22 16 -59 16t-74 -16zM772 940h254l12 25l6 24h-256q-8 -16 -10 -24q-6 -12 -6 -25zM795 868q24 -24 71 -24t88 24h-159zM879 1069h135q-23 16 -60 16 t-75 -16z" />
<glyph unicode="&#xa9;" horiz-adv-x="569" d="M403 940h41q2 20 13 49h-39q-4 -12 -8.5 -24.5t-6.5 -24.5zM410 868q8 -32 28 -55h80q-16 6 -26 14q-23 16 -35 41h-47zM461 1069h39l8 8l8 8q6 6 12.5 13.5t14.5 13.5h-47q-2 -4 -7 -8q-8 -10 -15 -18.5t-13 -16.5zM514 940h41q0 18 12 49h-41q-6 -14 -8 -26.5t-4 -22.5 zM551 868q16 -8 47 -8q26 0 49 8h-96zM575 1069h50q27 16 57 16q27 0 39 -16h47q-6 31 -35 43h-86q-41 -12 -72 -43zM633 1198h176q-41 19 -82 19q-43 0 -94 -19zM641 813h84q37 20 68 55h-50q-33 -31 -63 -41q-10 -4 -19.5 -7t-19.5 -7zM696 940h41q0 2 2 4l-32 10 q-4 -4 -5.5 -7t-5.5 -7zM809 940h39q8 12 14 23.5t10 25.5h-38q-12 -29 -25 -49zM836 1112q4 -6 5 -13t3 -14q0 -4 1 -8t1 -8h41q0 14 -4 35q0 4 -2 8h-45z" />
<glyph unicode="&#xab;" horiz-adv-x="630" d="M229 473q-4 -10 2.5 -20.5t10.5 -16.5l10 -10h201l20 55l-27 21h-206zM258 555h123l-2 2l98 68h-184q-12 -12 -17 -25zM305 381l92 -82h6l31 82h-129zM369 684h178l20 61h-104zM506 475q-4 -10 2 -20.5t10 -16.5l14 -12h197l21 57l-23 19h-211zM535 555h124l-4 4l97 66 h-185q-12 -16 -14 -23zM565 813h27l8 23zM584 381l96 -82h2l31 82h-129zM643 684h178l23 61h-107zM840 813h28l11 25z" />
<glyph unicode="&#xac;" horiz-adv-x="968" d="M211 426h856l27 76h-803zM346 555h768l25 70h-719zM709 201h276l21 57h-277zM743 299h277l31 82h-279z" />
<glyph unicode="&#xad;" horiz-adv-x="651" d="M211 426h385l80 76h-385zM346 555h385l74 70h-385z" />
<glyph unicode="&#xae;" horiz-adv-x="569" d="M406 940h40q0 10 2.5 22.5t6.5 26.5h-39q-4 -12 -6 -24.5t-4 -24.5zM412 868q8 -32 28 -55h84q-20 6 -32 16q-25 20 -35 39h-45zM461 1069h39q4 4 8 9t8 9l25 25h-45q-2 -2 -2 -4l-2 -2zM528 940h39l13 31h22q20 0 27 -8q8 -4 14 -23h45q-8 27 -29 37q25 0 43 12h-155z M575 1069h37l4 8h43q39 0 41 -2t4.5 -3t4.5 -3h47q0 4 -1 6t-1 6q0 14 -21 23q-8 8 -59 8h-82zM627 1198h188q-41 21 -86 21q-23 0 -47.5 -5.5t-54.5 -15.5zM635 813h86q20 10 38 24.5t34 30.5h-52q-16 -12 -30.5 -22t-30.5 -17q-12 -6 -23.5 -9t-21.5 -7zM807 940h41 q6 12 12 24.5t10 24.5h-39q-4 -12 -9 -24.5t-15 -24.5zM836 1112q4 -8 8 -25q0 -4 1 -9t1 -9h43q0 20 -6 43h-47z" />
<glyph unicode="&#xaf;" horiz-adv-x="946" d="M336 813h680l57 55h-680zM469 940h680l53 49h-680zM606 1069h680l19 16h-680z" />
<glyph unicode="&#xb0;" horiz-adv-x="374" d="M401 940h254l13 25l6 24h-256q-8 -16 -10 -24q-6 -12 -7 -25zM422 868q25 -24 72 -24t88 24h-160zM508 1069h133q-22 16 -59 16t-74 -16z" />
<glyph unicode="&#xb1;" horiz-adv-x="944" d="M35 0h678l14 14h-678zM78 41h678l102 96h-678zM215 170h678l92 88h-678zM250 555h678l73 70h-677zM387 684h678l65 61h-677zM461 336h276l17 45h-277zM494 426h276l27 76h-277zM633 813h276l21 55h-277zM680 940h276l19 49h-277z" />
<glyph unicode="&#xb4;" horiz-adv-x="348" d="M373 868q-8 -29 8 -39l8 -8q4 -4 19 -4q25 0 62.5 15.5t66.5 35.5h-164zM412 940h204q23 23 33 43q0 4 2 6h-194l-11 -10q-10 -10 -18 -19.5t-16 -19.5zM545 1069h90q-23 16 -45 16t-45 -16z" />
<glyph unicode="&#xb5;" horiz-adv-x="1714" d="M260 377l242 -68l-17 -10h930l2 2l4 -2h142l34 82h-1329zM283 555h229l31 70h-158l21 -60zM324 502l82 -62l-33 -14h202q-20 18 -14 76h-33l-20 -51l-51 -17l30 68h-163zM369 684h974h13h403l-30 23l124 34h13l-2 4h-1336l-12 -28l-139 14zM385 238l305 -15l-41 -53h139 l136 29l8 -29h133l115 53l49 -53h47l94 88h-952zM551 555h27q16 41 51 70h-49zM561 813h1137l-66 18l56 37h-943l-22 -20q-14 -8 -33 -8q-26 -1 -61 28h-41zM594 502q-14 -41 27 -41q10 0 19 1t19 3l-10 -37q-4 -2 -12 -2h891l31 20l26 -12l-10 -8h188q0 27 -14 76h-223 l-21 -56q-33 0 -57 56h-41l-21 -56l-30 -2l20 58h-37l-18 -56l-21 11q-4 33 -12 45h-39q-18 -12 -45 -45h-41q6 10 11.5 22.5t13.5 22.5h-37l-16 -41l-54 -17l25 58h-41l-23 -64q-39 0 -65 64h-31l-22 -62l-33 -6l22 68h-43q-45 -63 -79 -64q-10 -2 -18.5 -3t-14.5 -1 q-57 0 -53 37q4 8 5 15.5t5 15.5h-121zM623 555h116q25 41 52 70h-50l-2 -4q-2 2 -4 2t-4 2h-24q-23 -6 -50 -31q-20 -18 -34 -39zM625 135l8 2h-8v-2zM754 502q0 -25 22 -25q14 0 58 19l2 2q0 2 2 4h-84zM774 555h96q2 2 2 4t2 4q6 20 3 25q0 31 -25 30q-31 0 -78 -63z M829 940h107l-37 49h-12zM903 555h29l24 70h-32q2 -11 2 -31q-6 -10 -11.5 -19.5t-11.5 -19.5zM911 98l84 39h-61zM983 625l31 -70h30l29 70h-90zM995 940h473l31 49h-35l-268 -43l10 43h-104zM1083 555h47l31 70h-51zM1174 555h47l25.5 34t29.5 36h-74zM1264 557h61l4 68 h-8zM1358 555h37l24 70h-37q0 -4 -1 -6.5t-1 -4.5zM1425 555h2v2zM1452 625l29 -70h24l29 70h-82zM1518 258l24 -10l4 10h-28zM1544 555h49l29 70h-51zM1632 555h97q0 2 -2.5 4t-2.5 6l148 13l-2 24l-31 23h-172z" />
<glyph unicode="&#xb6;" horiz-adv-x="1261" d="M215 434l51 17l21 51h-41zM270 555h39l29 70h-37zM319 502q-5 -58 15 -76h61q8 0 13 2l10 37q-10 -2 -19.5 -3t-19.5 -1q-41 0 -27 41h-33zM336 555h45q14 20 35 39q27 25 49 31h-78q-35 -29 -51 -70zM463 471q-4 -37 53 -37q6 0 14.5 1t18.5 3q35 0 80 64h-33 q-2 -2 -2 -4l-2 -2q-43 -18 -57 -19q-23 0 -23 25h-39q-4 -8 -5 -15.5t-5 -15.5zM492 625q4 -4 6 -4l2 4h-8zM498 555h34q47 63 78 63q25 0 25 -30q4 -5 -2 -25q-2 -2 -2 -4t-2 -4h33q6 10 11 19.5t11 19.5q0 20 -2 31h-133q-27 -29 -51 -70zM649 434l33 6l23 62h-33z M690 555h82l-31 70h-26zM735 502q27 -64 66 -64l22 64h-88zM803 555h39l26 70h-37zM840 444l53 17l16 41h-45zM889 555h43l29 70h-41zM922 457h41q27 33 45 45h-62q-8 -10 -13 -22.5t-11 -22.5zM979 555h137l23 59q0 2 1 4.5t1 6.5h-54l-4 -68h-61l57 68h-45 q-16 -18 -29.5 -36zM1047 502q8 -12 12 -45l20 -11l19 56h-51zM1114 444l31 2l20 56h-30zM1153 555h31l2 2v-2h53l-29 70h-32zM1206 502q25 -56 58 -56l20 56h-78zM1264 555h39l26 70h-37zM1286 426h47l10 8l-26 12zM1352 555h39l34 70h-45z" />
<glyph unicode="&#xb7;" horiz-adv-x="374" d="M260 555h258q4 4 5 10t5 13q8 14 9 38v9h-242q-17 -18 -27 -47q-4 -6 -8 -23zM266 502q23 -45 86 -45q66 0 121 45h-207zM371 684h127q-29 14 -58 14q-18 0 -35.5 -4t-33.5 -10z" />
<glyph unicode="&#xb8;" horiz-adv-x="360" d="M-317 -238h534l2 9h-524zM-287 -215h512l39 109h-407zM-117 -86h387l37 98h-244l-22 -61h-109z" />
<glyph unicode="&#xbb;" horiz-adv-x="630" d="M166 299h6l127 82h-104zM211 426h156l51 33q10 8 24.5 19t26.5 24h-184l-60 -41zM305 684h223q-2 2 -2 4t-2 4l-61 53h-135zM319 625l68 -54l-25 -16h136l24 70h-203zM352 813h31l-23 21zM440 299h6l125 82h-100zM487 426h154l53 35q10 8 23.5 18t25.5 23h-184l-57 -39z M582 684h225q-2 4 -3 5t-3 5l-60 51h-137zM600 625l64 -52l-27 -18h137l27 70h-201zM629 813h35l-27 23z" />
<glyph unicode="&#xbf;" horiz-adv-x="1339" d="M125 137q4 -59 31 -96h1038q43 43 90 96h-1159zM125 170h1188q18 23 35.5 44t31.5 44h-1241q-6 -23 -10 -44t-4 -44zM156 299h403v2q0 14 6 30.5t17 26.5l8 11l16 12h-399q-6 -6 -14 -19q-23 -33 -37 -63zM186 14q23 -14 62 -14h905l14 14h-981zM246 426h776 q76 19 166 76h-864q-23 -18 -42.5 -38t-35.5 -38zM389 555h875q23 16 43.5 34t40.5 36h-848q-55 -31 -111 -70zM664 684h741q29 28 45 53h-317v-2q-4 -6 -36 -27.5t-96 -21.5h-305q-8 0 -15 -1t-17 -1zM1227 868q8 -37 43 -55h145q49 20 82 55h-270zM1231 940h311q2 0 2 2 q10 35 10 47h-297q-14 -20 -24 -47q0 -2 -2 -2zM1362 1069h147q-27 16 -67 16q-41 0 -80 -16z" />
<glyph unicode="&#xc0;" d="M41 0h866q4 2 9.5 5t11.5 9h-883q0 6 -4 -14zM61 41h893q20 20 41 44.5t41 51.5h-899zM162 170h899q33 43 41 61l10 -61h371l-15 88h-1237zM262 299h426l62 82h-422zM362 426h422l56 76h-418zM463 555h418l51 70h-414zM563 684h414l45 61h-410zM666 813h718l-8 55h-667z M764 940h594q-4 12 -7.5 24.5t-7.5 24.5h-542q-14 -14 -19 -26zM887 1069h416q-17 16 -33 16h-344q-16 0 -39 -16zM1028 1356q-2 -13 2 -29h205q-2 8 -3 14.5t-1 14.5h-203zM1030 745l10 -61h363l-8 61h-365zM1049 625l10 -70h364l-10 70h-364zM1067 502l12 -76h363l-10 76 h-365zM1073 1233q37 -33 78 -33q18 0 23 4l12 8q16 6 24 21h-137zM1085 381l13 -82h364l-12 82h-365zM1114 1454h82q-15 14 -31 14q-8 0 -20 -4t-31 -10zM1118 137l19 -96h366l-16 96h-369zM1143 14l2 -14h364l-2 14h-364z" />
<glyph unicode="&#xc1;" d="M41 0h866q4 2 9.5 5t11.5 9h-883q0 6 -4 -14zM61 41h893q20 20 41 44.5t41 51.5h-899zM162 170h899q33 43 41 61l10 -61h371l-15 88h-1237zM262 299h426l62 82h-422zM362 426h422l56 76h-418zM463 555h418l51 70h-414zM563 684h414l45 61h-410zM666 813h718l-8 55h-667z M764 940h594q-4 12 -7.5 24.5t-7.5 24.5h-542q-14 -14 -19 -26zM887 1069h416q-17 16 -33 16h-344q-16 0 -39 -16zM1022 1233q4 -15 10 -19l6 -8q4 -4 21 -4q18 0 43.5 8.5t52.5 22.5h-133zM1030 745l10 -61h363l-8 61h-365zM1049 625l10 -70h364l-10 70h-364zM1065 1327 h203q6 6 13 13.5t11 15.5h-202q-6 -8 -12.5 -14.5t-12.5 -14.5zM1067 502l12 -76h363l-10 76h-365zM1085 381l13 -82h364l-12 82h-365zM1118 137l19 -96h366l-16 96h-369zM1143 14l2 -14h364l-2 14h-364zM1194 1454h90q-22 16 -45 16t-45 -16z" />
<glyph unicode="&#xc2;" d="M41 0h866q4 2 9.5 5t11.5 9h-883q0 6 -4 -14zM61 41h893q20 20 41 44.5t41 51.5h-899zM162 170h899q33 43 41 61l10 -61h371l-15 88h-1237zM262 299h426l62 82h-422zM362 426h422l56 76h-418zM463 555h418l51 70h-414zM563 684h414l45 61h-410zM666 813h718l-8 55h-667z M764 940h594q-4 12 -7.5 24.5t-7.5 24.5h-542q-14 -14 -19 -26zM858 1214q-4 -4 186 0l17 19h-184zM887 1069h416q-17 16 -33 16h-344q-16 0 -39 -16zM973 1327h180l8 8l4 -8h176l-14 29h-326zM1030 745l10 -61h363l-8 61h-365zM1049 625l10 -70h364l-10 70h-364zM1067 502 l12 -76h363l-10 76h-365zM1085 381l13 -82h364l-12 82h-365zM1118 137l19 -96h366l-16 96h-369zM1143 14l2 -14h364l-2 14h-364zM1221 1233l10 -19h168l-10 19h-168z" />
<glyph unicode="&#xc3;" d="M41 0h866q4 2 9.5 5t11.5 9h-883q0 6 -4 -14zM61 41h893q20 20 41 44.5t41 51.5h-899zM162 170h899q33 43 41 61l10 -61h371l-15 88h-1237zM262 299h426l62 82h-422zM362 426h422l56 76h-418zM463 555h418l51 70h-414zM563 684h414l45 61h-410zM666 813h718l-8 55h-667z M764 940h594q-4 12 -7.5 24.5t-7.5 24.5h-542q-14 -14 -19 -26zM797 1214h186l18 19h-186zM887 1069h416q-17 16 -33 16h-344q-16 0 -39 -16zM911 1327h183l8 8l4 -8h367q10 8 16 14.5t14 14.5h-184l-23 -23l-12 23h-344zM1030 745l10 -61h363l-8 61h-365zM1049 625l10 -70 h364l-10 70h-364zM1067 502l12 -76h363l-10 76h-365zM1085 381l13 -82h364l-12 82h-365zM1118 137l19 -96h366l-16 96h-369zM1143 14l2 -14h364l-2 14h-364zM1159 1233l10 -19h168q8 0 18.5 6.5t18.5 12.5h-215z" />
<glyph unicode="&#xc4;" d="M41 0h866q4 2 9.5 5t11.5 9h-883q0 6 -4 -14zM61 41h893q20 20 41 44.5t41 51.5h-899zM162 170h899q33 43 41 61l10 -61h371l-15 88h-1237zM262 299h426l62 82h-422zM362 426h422l56 76h-418zM463 555h418l51 70h-414zM563 684h414l45 61h-410zM666 813h718l-8 55h-667z M764 940h594q-4 12 -7.5 24.5t-7.5 24.5h-542q-14 -14 -19 -26zM854 1327h260q0 2 4 10q4 12 4 19h-256q-4 -7 -8 -19q-2 -4 -2 -6t-2 -4zM881 1233q26 -16 61 -16t74 16h-135zM887 1069h416q-17 16 -33 16h-344q-16 0 -39 -16zM993 1454h70q-8 2 -15.5 3t-17.5 1t-18 -1 t-19 -3zM1030 745l10 -61h363l-8 61h-365zM1049 625l10 -70h364l-10 70h-364zM1067 502l12 -76h363l-10 76h-365zM1085 381l13 -82h364l-12 82h-365zM1118 137l19 -96h366l-16 96h-369zM1143 14l2 -14h364l-2 14h-364zM1225 1327h260q0 2 4 10q4 12 4 19h-256q-4 -6 -8 -19 q-2 -4 -2 -6t-2 -4zM1253 1233q19 -16 62 -16q35 0 71 16h-133zM1366 1454h70q-8 2 -15.5 3t-17.5 1t-18.5 -1t-18.5 -3z" />
<glyph unicode="&#xc5;" d="M41 0h866q4 2 9.5 5t11.5 9h-883q0 6 -4 -14zM61 41h893q20 20 41 44.5t41 51.5h-899zM162 170h899q33 43 41 61l10 -61h371l-15 88h-1237zM262 299h426l62 82h-422zM362 426h422l56 76h-418zM463 555h418l51 70h-414zM563 684h414l45 61h-410zM666 813h718l-8 55h-667z M764 940h594q-4 12 -7.5 24.5t-7.5 24.5h-542q-14 -14 -19 -26zM887 1069h416q-17 16 -33 16h-344q-16 0 -39 -16zM1030 745l10 -61h363l-8 61h-365zM1042 1327h261q0 2 4 10q4 12 4 19h-256q-4 -7 -8 -19l-3 -6q0 -2 -2 -4zM1049 625l10 -70h364l-10 70h-364zM1067 502 l12 -76h363l-10 76h-365zM1069 1233q26 -16 61 -16t74 16h-135zM1085 381l13 -82h364l-12 82h-365zM1118 137l19 -96h366l-16 96h-369zM1143 14l2 -14h364l-2 14h-364zM1182 1454h69q-8 2 -15 3t-17 1t-18.5 -1t-18.5 -3z" />
<glyph unicode="&#xc6;" horiz-adv-x="2381" d="M41 0h866q4 2 9.5 5t11.5 9h-883q0 6 -4 -14zM61 41h893q20 20 41 44.5t41 51.5h-899zM162 170h899q33 43 41 61l10 -61h1243q4 4 8 10t8.5 10.5t18.5 27t25 40.5h-2184zM262 299h426l62 82h-422zM362 426h422l56 76h-418zM463 555h418l51 70h-414zM563 684h414l45 61 h-410zM666 813h718l-8 55h-667zM764 940h598q-4 12 -8 24.5t-8 24.5h-545q-14 -14 -19 -26zM887 1069h413q-16 16 -30 16h-344q-16 0 -39 -16zM1030 745l10 -61h750l22 61h-393l-16 -49l-8 49h-365zM1049 625l10 -70h684l24 70h-718zM1067 502l12 -76h1043l80 76h-469 l-15 -15l4 15h-655zM1085 381l13 -82h551l28 82h-592zM1118 137l19 -96h1091q23 20 48 44.5t48 51.5h-1206zM1143 14l2 -14h1034l5 3t14 11h-1055zM1444 813h1036q12 6 29 20.5t37 34.5h-1082zM1491 940h1118q10 12 19.5 24.5t19.5 24.5h-1139zM1538 1069h1165q2 4 4.5 8 t4.5 8h-1168zM1788 555h469l74 70h-471z" />
<glyph unicode="&#xc7;" horiz-adv-x="1292" d="M221 -238h535l2 9h-527zM252 -215h512l39 109h-408zM260 461q0 -19 4 -35h406q-10 18 -16.5 37.5t-10.5 38.5h-383v-4v-37zM264 555h379q2 12 6 25.5t8 29.5q2 4 2 6q0 4 3 9h-386q-10 -37 -12 -70zM270 381q9 -45 25 -82h489q-23 14 -45 35.5t-41 46.5h-428zM295 684 h397q10 16 20.5 31.5t22.5 29.5h-411q-8 -16 -15.5 -30.5t-13.5 -30.5zM315 258q14 -25 30 -47.5t36 -40.5h887q16 23 32.5 44.5t32.5 43.5h-1018zM360 813h1033l61 55h-1053q-10 -14 -20.5 -27.5t-20.5 -27.5zM418 137q83 -65 194 -96h537q49 43 92 96h-823zM422 -86h387 l33 88q6 -2 24 -2h236q6 4 16 14h-516l-22 -63h-109zM467 940h1055l43 49h-1041q-16 -12 -29.5 -24.5t-27.5 -24.5zM682 1069h946q4 4 12 16h-845q-54 0 -113 -16z" />
<glyph unicode="&#xc8;" horiz-adv-x="1280" d="M57 0h1030l5 3q6 3 14 11h-1045zM72 41h1065q23 20 48 44.5t48 51.5h-1127zM119 170h1145q4 4 8 10t8 10t18.5 27t24.5 41h-1173zM166 299h391l29 82h-391zM211 426h819l80 76h-469l-14 -15l4 15h-391zM258 555h393l25 70h-391zM305 684h393l23 61h-393zM352 813h1037 q12 6 28.5 20.5t36.5 34.5h-1081zM399 940h1119q10 12 19 24.5t19 24.5h-1138zM446 1069h1166l4 8l4 8h-1167zM696 555h469l74 70h-471zM940 1356q0 -13 4 -29h203q0 8 -1 14.5t-3 14.5h-203zM999 1233q29 -23 64 -23q2 0 22 4l13 9q6 2 14 10h-113zM1006 1454h106 q-6 17 -22 23h-29q-10 -4 -41 -15q-4 -4 -7 -5t-7 -3z" />
<glyph unicode="&#xc9;" horiz-adv-x="1280" d="M57 0h1030l5 3q6 3 14 11h-1045zM72 41h1065q23 20 48 44.5t48 51.5h-1127zM119 170h1145q4 4 8 10t8 10t18.5 27t24.5 41h-1173zM166 299h391l29 82h-391zM211 426h819l80 76h-469l-14 -15l4 15h-391zM258 555h393l25 70h-391zM305 684h393l23 61h-393zM352 813h1037 q12 6 28.5 20.5t36.5 34.5h-1081zM399 940h1119q10 12 19 24.5t19 24.5h-1138zM446 1069h1166l4 8l4 8h-1167zM696 555h469l74 70h-471zM938 1233q2 -6 8 -8l6 -8q4 -4 19 -5q29 0 73 21h-106zM969 1327h202l13.5 13.5t13.5 15.5h-205q-6 -8 -12 -14.5t-12 -14.5zM1096 1454 h110q-2 4 -4 5t-4 5q-6 4 -11 6.5t-11 6.5h-46q-20 -10 -34 -23z" />
<glyph unicode="&#xca;" horiz-adv-x="1280" d="M57 0h1030l5 3q6 3 14 11h-1045zM72 41h1065q23 20 48 44.5t48 51.5h-1127zM119 170h1145q4 4 8 10t8 10t18.5 27t24.5 41h-1173zM166 299h391l29 82h-391zM211 426h819l80 76h-469l-14 -15l4 15h-391zM258 555h393l25 70h-391zM305 684h393l23 61h-393zM352 813h1037 q12 6 28.5 20.5t36.5 34.5h-1081zM399 940h1119q10 12 19 24.5t19 24.5h-1138zM446 1069h1166l4 8l4 8h-1167zM696 555h469l74 70h-471zM774 1221h187l12 12h-187zM883 1327h184l14 14l9 -14h172l-15 29h-336zM1020 1454h166q-11 6 -19 6h-127q-8 0 -20 -6zM1141 1233l6 -12 h168l-6 12h-168z" />
<glyph unicode="&#xcb;" horiz-adv-x="1280" d="M57 0h1030l5 3q6 3 14 11h-1045zM72 41h1065q23 20 48 44.5t48 51.5h-1127zM119 170h1145q4 4 8 10t8 10t18.5 27t24.5 41h-1173zM166 299h391l29 82h-391zM211 426h819l80 76h-469l-14 -15l4 15h-391zM258 555h393l25 70h-391zM305 684h393l23 61h-393zM352 813h1037 q12 6 28.5 20.5t36.5 34.5h-1081zM399 940h1119q10 12 19 24.5t19 24.5h-1138zM446 1069h1166l4 8l4 8h-1167zM696 555h469l74 70h-471zM797 1327h260q0 2 4 10q4 12 4 19h-256q-4 -7 -8 -19q-2 -4 -2 -6t-2 -4zM823 1233q27 -16 62 -16t73 16h-135zM936 1454h70 q-8 2 -15.5 3t-17.5 1t-18.5 -1t-18.5 -3zM1167 1327h260l5 10q4 12 4 19h-256q-4 -6 -9 -19q-2 -4 -2 -6t-2 -4zM1196 1233q18 -16 61 -16q35 0 72 16h-133zM1309 1454h69q-8 2 -15 3t-17 1t-18.5 -1t-18.5 -3z" />
<glyph unicode="&#xcc;" horiz-adv-x="507" d="M57 0h394l4 14h-394zM72 41h393l35 96h-394zM119 170h393l31 88h-393zM166 299h393l29 82h-393zM211 426h393l29 76h-393zM258 555h393l27 70h-393zM305 684h393l23 61h-393zM352 813h393l21 55h-393zM399 940h394l18 49h-393zM446 1069h394l6 16h-393zM600 1356 q0 -21 4 -29h205q-2 8 -3 14.5t-3 14.5h-203zM649 1233q35 -31 76 -31q16 0 20 4l15 8q14 6 22 19h-133zM680 1454h90q-13 16 -33 16q-12 0 -57 -16z" />
<glyph unicode="&#xcd;" horiz-adv-x="507" d="M57 0h394l4 14h-394zM72 41h393l35 96h-394zM119 170h393l31 88h-393zM166 299h393l29 82h-393zM211 426h393l29 76h-393zM258 555h393l27 70h-393zM305 684h393l23 61h-393zM352 813h393l21 55h-393zM399 940h394l18 49h-393zM446 1069h394l6 16h-393zM590 1233 q2 -6 10 -14l6 -9q4 -4 19 -4q16 0 39.5 7.5t46.5 19.5h-121zM627 1327h204l13.5 13.5t13.5 15.5h-205q-6 -8 -13 -14.5t-13 -14.5zM758 1454h98q-4 0 -4 4q-22 17 -45 17t-49 -21z" />
<glyph unicode="&#xce;" horiz-adv-x="507" d="M57 0h394l4 14h-394zM72 41h393l35 96h-394zM119 170h393l31 88h-393zM166 299h393l29 82h-393zM211 426h393l29 76h-393zM258 555h393l27 70h-393zM305 684h393l23 61h-393zM352 813h393l21 55h-393zM399 940h394l18 49h-393zM428 1219h186l15 14h-187zM446 1069h394 l6 16h-393zM539 1327h182l12 12l6 -12h174l-14 29h-332zM676 1454h158q-9 4 -15 4h-127q-4 0 -16 -4zM793 1233l8 -14h168l-8 14h-168z" />
<glyph unicode="&#xcf;" horiz-adv-x="507" d="M57 0h394l4 14h-394zM72 41h393l35 96h-394zM119 170h393l31 88h-393zM166 299h393l29 82h-393zM211 426h393l29 76h-393zM258 555h393l27 70h-393zM305 684h393l23 61h-393zM352 813h393l21 55h-393zM399 940h394l18 49h-393zM426 1327h260q0 2 4 10q4 12 4 19h-256 q-4 -7 -8 -19q-2 -4 -2 -6t-2 -4zM446 1069h394l6 16h-393zM453 1233q26 -16 61 -16t74 16h-135zM565 1454h70q-8 2 -15.5 3t-17.5 1t-18.5 -1t-18.5 -3zM797 1327h260q0 2 4 10q4 12 4 19h-256q-4 -6 -8 -19q-2 -4 -2 -6t-2 -4zM825 1233q19 -16 62 -16q35 0 71 16h-133z M938 1454h70q-8 2 -15.5 3t-17.5 1t-18.5 -1t-18.5 -3z" />
<glyph unicode="&#xd0;" horiz-adv-x="1583" d="M211 426h698l80 76h-698zM283 0h510q51 0 98 3t94 11h-698zM297 41h805q113 33 211 96h-981zM344 170h1016q27 18 52 40.5t52 47.5h-1089zM346 555h698l74 70h-698zM391 299h397l29 82h-397zM530 684h398l22 61h-397zM578 813h1222q2 14 2 27v28h-1204zM625 940h1163 q-4 12 -10.5 24.5t-12.5 24.5h-1122zM672 1069h995q-45 16 -98 16h-891zM946 299h559q18 18 38 38.5t38 43.5h-463q-84 -53 -172 -82zM1188 426h430q14 16 27.5 35t27.5 37l1 1t1 3h-397q-18 -18 -41 -38t-49 -38zM1319 555h393q23 35 37 70h-391q-2 -6 -6 -15 q-14 -29 -33 -55zM1372 684h402q4 16 8 30.5t8 30.5h-416q2 -6 2 -18q0 -10 -1 -21.5t-3 -21.5z" />
<glyph unicode="&#xd1;" horiz-adv-x="1339" d="M57 0h394l4 14h-394zM72 41h393l35 96h-394zM119 170h393l31 88h-393zM166 299h393l29 82h-393zM211 426h393l29 76h-393zM258 555h393l21 55l10 -55h367l-13 70h-751zM305 684h719l-12 61h-684zM352 813h647l-10 55h-616zM399 940h576l-8 49h-549zM446 1069h504l-2 16 h-495zM692 502l15 -76h729l28 76h-389l-10 -27l-6 27h-367zM713 1214h186l19 19h-187zM715 381l14 -82h662l28 82h-704zM737 258l17 -88h589l31 88h-637zM760 137l18 -96h518l35 96h-571zM784 14l2 -14h496l4 14h-502zM827 1327h183l8 8l4 -8h367q10 8 16 14.5t14 14.5h-184 l-23 -23l-12 23h-344zM1075 1233l10 -19h168q8 0 18.5 6.5t18.5 12.5h-215zM1094 555h389l26 70h-389zM1141 684h389l22 61h-389zM1188 813h389l20 55h-389zM1235 940h389l18 49h-389zM1282 1069h389l6 16h-389z" />
<glyph unicode="&#xd2;" horiz-adv-x="1476" d="M229 381q0 -23 2 -43.5t7 -38.5h491q-45 29 -74 82h-426zM229 426h406q-12 37 -12 76h-385v-4q-4 -18 -5.5 -37t-3.5 -35zM246 258q8 -25 17.5 -47.5t23.5 -40.5h1087q25 20 47.5 41.5t42.5 46.5h-1218zM250 555h381q4 20 22 55q4 8 9 15h-388q-16 -39 -24 -70zM303 684 h402q30 32 67 61h-432q-23 -31 -37 -61zM311 137q56 -63 152 -96h700q92 33 170 96h-1022zM389 813h1239q-4 14 -9 27.5t-11 27.5h-1170q-29 -29 -49 -55zM516 940h1047q-23 29 -52 49h-927zM567 14q43 -8 90.5 -11t98.5 -3h205q63 0 120 14h-514zM756 1069h565 q-88 16 -180 16h-271q-55 0 -114 -16zM1010 299h489q33 43 55 82h-426q-29 -27 -59 -47.5t-59 -34.5zM1085 1356q1 -13 5 -29h202q0 8 -1 14.5t-3 14.5h-203zM1139 1233q32 -27 69 -27q18 0 23 4l14 9q8 2 17 14h-123zM1157 1454h100q-14 21 -34 21q-12 0 -58 -17 q-4 -4 -8 -4zM1174 426h405q18 39 31 76h-387q-4 -6 -7.5 -13.5t-7.5 -13.5q-8 -12 -16 -24.5t-18 -24.5zM1221 745q16 -30 22 -61h397q2 16 1 30.5t-3 30.5h-417zM1241 555h385q2 8 3 15.5t3 17.5t3 18t1 19h-389q-2 -18 -2 -35q0 -14 -2 -31l-1 -1t-1 -3z" />
<glyph unicode="&#xd3;" horiz-adv-x="1476" d="M229 381q0 -23 2 -43.5t7 -38.5h491q-45 29 -74 82h-426zM229 426h406q-12 37 -12 76h-385v-4q-4 -18 -5.5 -37t-3.5 -35zM246 258q8 -25 17.5 -47.5t23.5 -40.5h1087q25 20 47.5 41.5t42.5 46.5h-1218zM250 555h381q4 20 22 55q4 8 9 15h-388q-16 -39 -24 -70zM303 684 h402q30 32 67 61h-432q-23 -31 -37 -61zM311 137q56 -63 152 -96h700q92 33 170 96h-1022zM389 813h1239q-4 14 -9 27.5t-11 27.5h-1170q-29 -29 -49 -55zM516 940h1047q-23 29 -52 49h-927zM567 14q43 -8 90.5 -11t98.5 -3h205q63 0 120 14h-514zM756 1069h565 q-88 16 -180 16h-271q-55 0 -114 -16zM1010 299h489q33 43 55 82h-426q-29 -27 -59 -47.5t-59 -34.5zM1067 1233q2 -6 10 -14l6 -9q4 -4 19 -4q16 0 39.5 7.5t46.5 19.5h-121zM1104 1327h205q6 6 13 13.5t13 15.5h-205q-6 -8 -13 -14.5t-13 -14.5zM1174 426h405q18 39 31 76 h-387q-4 -6 -7.5 -13.5t-7.5 -13.5q-8 -12 -16 -24.5t-18 -24.5zM1221 745q16 -30 22 -61h397q2 16 1 30.5t-3 30.5h-417zM1235 1454h98q-4 0 -4 4q-22 17 -45 17t-49 -21zM1241 555h385q2 8 3 15.5t3 17.5t3 18t1 19h-389q-2 -18 -2 -35q0 -14 -2 -31l-1 -1t-1 -3z" />
<glyph unicode="&#xd4;" horiz-adv-x="1476" d="M229 381q0 -23 2 -43.5t7 -38.5h491q-45 29 -74 82h-426zM229 426h406q-12 37 -12 76h-385v-4q-4 -18 -5.5 -37t-3.5 -35zM246 258q8 -25 17.5 -47.5t23.5 -40.5h1087q25 20 47.5 41.5t42.5 46.5h-1218zM250 555h381q4 20 22 55q4 8 9 15h-388q-16 -39 -24 -70zM303 684 h402q30 32 67 61h-432q-23 -31 -37 -61zM311 137q56 -63 152 -96h700q92 33 170 96h-1022zM389 813h1239q-4 14 -9 27.5t-11 27.5h-1170q-29 -29 -49 -55zM516 940h1047q-23 29 -52 49h-927zM567 14q43 -8 90.5 -11t98.5 -3h205q63 0 120 14h-514zM756 1069h565 q-88 16 -180 16h-271q-55 0 -114 -16zM881 1217h186l16 16h-186zM993 1327h185l10 10l4 -10h174l-14 29h-330zM1010 299h489q33 43 55 82h-426q-29 -27 -59 -47.5t-59 -34.5zM1137 1454h147q-4 0 -6 1t-4 1h-127q-4 0 -5 -1t-5 -1zM1174 426h405q18 39 31 76h-387 q-4 -6 -7.5 -13.5t-7.5 -13.5q-8 -12 -16 -24.5t-18 -24.5zM1221 745q16 -30 22 -61h397q2 16 1 30.5t-3 30.5h-417zM1241 555h385q2 8 3 15.5t3 17.5t3 18t1 19h-389q-2 -18 -2 -35q0 -14 -2 -31l-1 -1t-1 -3zM1243 1233l10 -16h168l-8 16h-170z" />
<glyph unicode="&#xd5;" horiz-adv-x="1476" d="M229 381q0 -23 2.5 -43.5t6.5 -38.5h491q-45 29 -74 82h-426zM229 426h406q-12 37 -12 76h-385v-4q-4 -18 -5.5 -37t-3.5 -35zM246 258q8 -25 17.5 -47.5t23.5 -40.5h1087q25 20 47.5 41.5t42.5 46.5h-1218zM250 555h381q4 20 22 55q4 8 9 15h-388q-16 -39 -24 -70z M303 684h402q31 33 67 61h-432q-23 -30 -37 -61zM311 137q56 -63 152 -96h700q92 33 170 96h-1022zM389 813h1239q-4 14 -9 27.5t-11 27.5h-1170q-29 -29 -49 -55zM516 940h1047q-23 29 -52 49h-927zM567 14q43 -8 90.5 -11t98.5 -3h205q63 0 120 14h-514zM756 1069h565 q-88 16 -180 16h-271q-55 0 -114 -16zM786 1214h187l18 19h-186zM901 1327h182l9 8l4 -8h366q10 8 16.5 14.5l14.5 14.5h-184l-23 -23l-12 23h-344zM1010 299h489q32 43 55 82h-426q-29 -27 -59.5 -47.5t-58.5 -34.5zM1149 1233l10 -19h168q8 0 18.5 6.5t18.5 12.5h-215z M1174 426h405q19 39 31 76h-387q-4 -6 -7.5 -13.5t-7.5 -13.5q-8 -12 -16 -24.5t-18 -24.5zM1221 745q16 -31 22 -61h397q2 16 1 30.5t-3 30.5h-417zM1241 555h385q2 8 3 15.5t3 17.5t3 18t1 19h-389q-2 -18 -2 -35q0 -14 -2 -31l-1 -1t-1 -3z" />
<glyph unicode="&#xd6;" horiz-adv-x="1476" d="M229 381q0 -23 2 -43.5t7 -38.5h491q-45 29 -74 82h-426zM229 426h406q-12 37 -12 76h-385v-4q-4 -18 -5.5 -37t-3.5 -35zM246 258q8 -25 17.5 -47.5t23.5 -40.5h1087q25 20 47.5 41.5t42.5 46.5h-1218zM250 555h381q4 20 22 55q4 8 9 15h-388q-16 -39 -24 -70zM303 684 h402q30 32 67 61h-432q-23 -31 -37 -61zM311 137q56 -63 152 -96h700q92 33 170 96h-1022zM389 813h1239q-4 14 -9 27.5t-11 27.5h-1170q-29 -29 -49 -55zM516 940h1047q-23 29 -52 49h-927zM567 14q43 -8 90.5 -11t98.5 -3h205q63 0 120 14h-514zM756 1069h565 q-88 16 -180 16h-271q-55 0 -114 -16zM891 1327h260q0 2 4 10q4 12 4 19h-256q-4 -7 -8 -19q-2 -4 -2 -6t-2 -4zM918 1233q26 -16 61 -16t74 16h-135zM1010 299h489q33 43 55 82h-426q-29 -27 -59 -47.5t-59 -34.5zM1030 1454h70q-8 2 -15.5 3t-17.5 1t-18.5 -1t-18.5 -3z M1174 426h405q18 39 31 76h-387q-4 -6 -7.5 -13.5t-7.5 -13.5q-8 -12 -16 -24.5t-18 -24.5zM1221 745q16 -30 22 -61h397q2 16 1 30.5t-3 30.5h-417zM1241 555h385q2 8 3 15.5t3 17.5t3 18t1 19h-389q-2 -18 -2 -35q0 -14 -2 -31l-1 -1t-1 -3zM1262 1327h260q0 2 4 10 q4 12 4 19h-256q-4 -6 -8 -19q-2 -4 -2 -6t-2 -4zM1290 1233q27 -16 62 -16t71 16h-133zM1403 1454h70q-8 2 -15.5 3t-17.5 1t-18.5 -1t-18.5 -3z" />
<glyph unicode="&#xd7;" horiz-adv-x="817" d="M129 256h254l2 2h-254zM180 299h256l105 82h-258zM336 813h254v2h-254v-2zM338 426h448l-38 76h-316zM371 745l30 -61h258l-32 61h-256zM430 625l35 -70h289l86 70h-410zM555 381l41 -82h254l-41 82h-254zM616 258l2 -2h254l-2 2h-254zM659 684h254l76 61h-254zM819 813 h254l2 2h-254z" />
<glyph unicode="&#xd8;" horiz-adv-x="1476" d="M229 381q0 -23 2.5 -43.5t6.5 -38.5h491h-2v2l111 80h-609zM229 426h672l107 76h-281l-96 -68q-10 37 -10 68h-383v-4q-4 -18 -5.5 -37t-3.5 -35zM246 258q8 -25 17.5 -47.5t23.5 -40.5h1087q25 20 47.5 41.5t42.5 46.5h-1218zM250 555h381q4 20 22 55q4 8 9 15h-388 q-16 -39 -24 -70zM303 684h402q31 33 67 61h-432q-23 -30 -37 -61zM311 137q56 -63 152 -96h700q92 33 170 96h-1022zM389 813h1239q-4 14 -9 27.5t-11 27.5h-1170q-29 -29 -49 -55zM516 940h1047q-23 29 -52 49h-927zM567 14q43 -8 90.5 -11t98.5 -3h205q63 0 120 14h-514z M756 1069h565q-88 16 -180 16h-271q-55 0 -114 -16zM803 555h280l97 70h-279zM985 684h655q2 16 1 30.5t-3 30.5h-565zM1010 299h489q32 43 55 82h-426q-29 -27 -59.5 -47.5t-58.5 -34.5zM1174 426h405q19 39 31 76h-387q-4 -6 -7.5 -13.5t-7.5 -13.5q-8 -12 -16 -24.5 t-18 -24.5zM1241 555h385q2 8 3 15.5t3 17.5t3 18t1 19h-391q2 -16 1 -33t-3 -33l-1 -1t-1 -3z" />
<glyph unicode="&#xd9;" horiz-adv-x="1396" d="M221 299h467q-35 27 -45 82h-416q-4 -23 -5 -43.5t-1 -38.5zM223 258q3 -49 23 -88h1097q33 39 64 88h-1184zM236 426h403q0 31 6 68q0 2 -1 3t1 5h-391q-4 -20 -9 -39t-9 -37zM266 137q45 -61 137 -96h773q74 33 137 96h-1047zM270 555h389q4 12 10.5 29.5t12.5 40.5 h-393q-6 -18 -10.5 -36zM309 684h393q4 14 9.5 29.5t11.5 31.5h-391zM354 813h391q9 24 19 55h-389zM399 940h389q4 10 8.5 23.5l8.5 25.5h-387zM446 1069h388q2 4 3 8t3 8h-387zM510 14q47 -8 98.5 -11t110.5 -3h239q37 0 72 3t66 11h-586zM956 299h474q10 18 20 38.5 t20 43.5h-411q-20 -25 -46 -46.5t-57 -35.5zM1047 1356q0 -13 4 -29h204q-2 8 -3 14.5t-1 14.5h-204zM1094 426h395q8 18 16.5 37t16.5 39h-389l-9 -25q-10 -20 -30 -51zM1100 1233q32 -29 71 -29q2 0 23 4l12 9q12 6 21 16h-127zM1124 1454h95q-15 19 -33 19q-12 0 -58 -17 q-2 -2 -4 -2zM1153 555h387q4 6 5 12.5t5 12.5l17 45h-389zM1200 684h387l23 61h-387zM1247 813h387l21 55h-389zM1292 940h389l19 49h-389zM1339 1069h390l6 16h-389z" />
<glyph unicode="&#xda;" horiz-adv-x="1396" d="M221 299h467q-35 27 -45 82h-416q-4 -23 -5 -43.5t-1 -38.5zM223 258q3 -49 23 -88h1097q33 39 64 88h-1184zM236 426h403q0 31 6 68q0 2 -1 3t1 5h-391q-4 -20 -9 -39t-9 -37zM266 137q45 -61 137 -96h773q74 33 137 96h-1047zM270 555h389q4 12 10.5 29.5t12.5 40.5 h-393q-6 -18 -10.5 -36zM309 684h393q4 14 9.5 29.5t11.5 31.5h-391zM354 813h391q9 24 19 55h-389zM399 940h389q4 10 8.5 23.5l8.5 25.5h-387zM446 1069h388q2 4 3 8t3 8h-387zM510 14q47 -8 98.5 -11t110.5 -3h239q37 0 72 3t66 11h-586zM956 299h474q10 18 20 38.5 t20 43.5h-411q-20 -25 -46 -46.5t-57 -35.5zM1038 1233q3 -12 11 -16l8 -9q0 -4 18 -4q16 0 41 8.5t49 20.5h-127zM1079 1327h203l13.5 13.5t11.5 15.5h-201q-6 -8 -13.5 -14.5t-13.5 -14.5zM1094 426h395q8 18 16.5 37t16.5 39h-389l-9 -25q-10 -20 -30 -51zM1153 555h387 q4 6 5 12.5t5 12.5l17 45h-389zM1200 684h387l23 61h-387zM1210 1454h95q-2 0 -2 2q-23 17 -46 17q-12 0 -23 -5.5t-24 -13.5zM1247 813h387l21 55h-389zM1292 940h389l19 49h-389zM1339 1069h390l6 16h-389z" />
<glyph unicode="&#xdb;" horiz-adv-x="1396" d="M221 299h467q-35 27 -45 82h-416q-4 -23 -5 -43.5t-1 -38.5zM223 258q3 -49 23 -88h1097q33 39 64 88h-1184zM236 426h403q0 31 6 68q0 2 -1 3t1 5h-391q-4 -20 -9 -39t-9 -37zM266 137q45 -61 137 -96h773q74 33 137 96h-1047zM270 555h389q4 12 10.5 29.5t12.5 40.5 h-393q-6 -18 -10.5 -36zM309 684h393q4 14 9.5 29.5t11.5 31.5h-391zM354 813h391q9 24 19 55h-389zM399 940h389q4 10 8.5 23.5l8.5 25.5h-387zM446 1069h388q2 4 3 8t3 8h-387zM510 14q47 -8 98.5 -11t110.5 -3h239q37 0 72 3t66 11h-586zM848 1217h186l17 16h-187z M956 299h474q10 18 20 38.5t20 43.5h-411q-20 -25 -46 -46.5t-57 -35.5zM961 1327h182l10 10l6 -10h174l-14 29h-330zM1094 426h395q8 18 16.5 37t16.5 39h-389l-9 -25q-10 -20 -30 -51zM1102 1454h147q-4 2 -10 2h-127q-4 0 -5 -1t-5 -1zM1153 555h387q4 6 5 12.5t5 12.5 l17 45h-389zM1200 684h387l23 61h-387zM1210 1233l11 -16h168l-9 16h-170zM1247 813h387l21 55h-389zM1292 940h389l19 49h-389zM1339 1069h390l6 16h-389z" />
<glyph unicode="&#xdc;" horiz-adv-x="1396" d="M221 299h467q-35 27 -45 82h-416q-4 -23 -5 -43.5t-1 -38.5zM223 258q3 -49 23 -88h1097q33 39 64 88h-1184zM236 426h403q0 31 6 68q0 2 -1 3t1 5h-391q-4 -20 -9 -39t-9 -37zM266 137q45 -61 137 -96h773q74 33 137 96h-1047zM270 555h389q4 12 10.5 29.5t12.5 40.5 h-393q-6 -18 -10.5 -36zM309 684h393q4 14 9.5 29.5t11.5 31.5h-391zM354 813h391q9 24 19 55h-389zM399 940h389q4 10 8.5 23.5l8.5 25.5h-387zM446 1069h388q2 4 3 8t3 8h-387zM510 14q47 -8 98.5 -11t110.5 -3h239q37 0 72 3t66 11h-586zM860 1327h260l4 8q4 12 4 21 h-256q-2 -4 -4 -10.5t-4 -10.5zM887 1233q20 -19 63 -19q41 0 78 19h-141zM956 299h474q10 18 20 38.5t20 43.5h-411q-20 -25 -46 -46.5t-57 -35.5zM1010 1454h53q-9 2 -25 2q-18 0 -28 -2zM1094 426h395q8 18 16.5 37t16.5 39h-389l-9 -25q-10 -20 -30 -51zM1153 555h387 q4 6 5 12.5t5 12.5l17 45h-389zM1200 684h387l23 61h-387zM1231 1327h260l4 8q4 12 4 21h-256q-4 -4 -5 -10.5t-3 -10.5zM1247 813h387l21 55h-389zM1257 1233q25 -19 66 -19t78 19h-144zM1292 940h389l19 49h-389zM1339 1069h390l6 16h-389zM1382 1454h54q-9 2 -25 2 q-18 0 -29 -2z" />
<glyph unicode="&#xdd;" horiz-adv-x="1343" d="M432 1085l6 -16h439l-7 16h-438zM471 989l21 -49h436l-21 49h-436zM475 0h393l4 14h-393zM489 41h394l35 96h-394zM520 868l23 -55h850l63 55h-440l-43 -39l-17 39h-436zM537 170h393l33 88h-394zM569 745l25 -61h653l70 61h-748zM584 299h393l31 82h-394zM618 625 l29 -70h453l80 70h-562zM631 426h393l27 76h-394zM1018 1233q2 -12 10 -16l8 -9q0 -4 19 -4q16 0 40.5 8.5t49.5 20.5h-127zM1059 1327h203q6 6 13 13.5t11 15.5h-201q-6 -8 -13 -14.5t-13 -14.5zM1098 940h438l55 49h-438zM1190 1454h94q-2 0 -2 2q-22 17 -45 17 q-12 0 -23.5 -5.5t-23.5 -13.5zM1245 1069h438l19 16h-438z" />
<glyph unicode="&#xde;" horiz-adv-x="1392" d="M57 0h394l4 14h-394zM72 41h393l35 96h-394zM119 170h393l6 18h576q113 0 227 70h-1171zM166 299h393l31 82h-395zM211 426h395l27 76h-393zM258 555h395l17 47h420q4 0 19 -17.5t21 -27.5v-2h394q2 8 2 25q-2 10 -2 20q0 12 -4 25h-1235zM305 684h1202q-4 16 -10 30.5 t-12 30.5h-1157zM352 813h1092q-29 37 -68 55h-1003zM399 940h394l18 49h-393zM446 1069h394l6 16h-393zM565 299h815q41 33 78 82h-801zM709 426h776q10 16 17.5 36t13.5 40h-406q-10 -14 -18.5 -25.5t-10.5 -11.5h-327z" />
<glyph unicode="&#xdf;" horiz-adv-x="1374" d="M-47 -289h393l21 60h-392zM-20 -215h393l39 109h-394zM27 -86h391l37 100h-392zM72 41h393l35 96h-394zM119 170h393l31 88h-391zM166 299h393l29 82h-391zM213 426h391l29 76h-393zM260 555h391l27 70h-393zM307 684h391l23 61h-391zM352 813h1209q-2 12 -3.5 25.5 t-5.5 29.5h-1165q-10 -14 -17.5 -27.5t-15.5 -25.5zM440 940h1090q-6 12 -12.5 24.5t-14.5 24.5h-1022q-10 -12 -20.5 -24.5t-20.5 -24.5zM492 0h469q118 0 190 14h-649q-4 -4 -6 -7t-4 -7zM518 41h719q70 33 113 96h-764q-16 -23 -33.5 -47t-34.5 -49zM551 1069h872 q-33 16 -67 16h-789l-8 -8zM608 170h760q10 18 21.5 40.5t21.5 47.5h-729q-20 -23 -37.5 -44t-36.5 -44zM766 426h690q-2 27 -13.5 44.5t-21.5 31.5h-569zM913 555h539q32 27 59 70h-518zM973 299h452q17 37 27 82h-424q0 -29 -6 -37l-4 -10q-2 -2 -5 -6l-3 -4 q-6 -4 -16.5 -11.5t-20.5 -13.5zM1130 684h412q13 30 19 61h-392l-2 -4q-4 -8 -15 -25.5t-22 -31.5z" />
<glyph unicode="&#xe0;" d="M41 0h866q4 2 9.5 5t11.5 9h-883q0 6 -4 -14zM61 41h893q20 20 41 44.5t41 51.5h-899zM162 170h899q33 43 41 61l10 -61h371l-15 88h-1237zM262 299h426l62 82h-422zM362 426h422l56 76h-418zM463 555h418l51 70h-414zM563 684h414l45 61h-410zM666 813h718l-8 55h-667z M764 940h594q-4 12 -7.5 24.5t-7.5 24.5h-542q-14 -14 -19 -26zM887 1069h416q-17 16 -33 16h-344q-16 0 -39 -16zM1028 1356q-2 -13 2 -29h205q-2 8 -3 14.5t-1 14.5h-203zM1030 745l10 -61h363l-8 61h-365zM1049 625l10 -70h364l-10 70h-364zM1067 502l12 -76h363l-10 76 h-365zM1073 1233q37 -33 78 -33q18 0 23 4l12 8q16 6 24 21h-137zM1085 381l13 -82h364l-12 82h-365zM1114 1454h82q-15 14 -31 14q-8 0 -20 -4t-31 -10zM1118 137l19 -96h366l-16 96h-369zM1143 14l2 -14h364l-2 14h-364z" />
<glyph unicode="&#xe1;" d="M41 0h866q4 2 9.5 5t11.5 9h-883q0 6 -4 -14zM61 41h893q20 20 41 44.5t41 51.5h-899zM162 170h899q33 43 41 61l10 -61h371l-15 88h-1237zM262 299h426l62 82h-422zM362 426h422l56 76h-418zM463 555h418l51 70h-414zM563 684h414l45 61h-410zM666 813h718l-8 55h-667z M764 940h594q-4 12 -7.5 24.5t-7.5 24.5h-542q-14 -14 -19 -26zM887 1069h416q-17 16 -33 16h-344q-16 0 -39 -16zM1022 1233q4 -15 10 -19l6 -8q4 -4 21 -4q18 0 43.5 8.5t52.5 22.5h-133zM1030 745l10 -61h363l-8 61h-365zM1049 625l10 -70h364l-10 70h-364zM1065 1327 h203q6 6 13 13.5t11 15.5h-202q-6 -8 -12.5 -14.5t-12.5 -14.5zM1067 502l12 -76h363l-10 76h-365zM1085 381l13 -82h364l-12 82h-365zM1118 137l19 -96h366l-16 96h-369zM1143 14l2 -14h364l-2 14h-364zM1194 1454h90q-22 16 -45 16t-45 -16z" />
<glyph unicode="&#xe2;" d="M41 0h866q4 2 9.5 5t11.5 9h-883q0 6 -4 -14zM61 41h893q20 20 41 44.5t41 51.5h-899zM162 170h899q33 43 41 61l10 -61h371l-15 88h-1237zM262 299h426l62 82h-422zM362 426h422l56 76h-418zM463 555h418l51 70h-414zM563 684h414l45 61h-410zM666 813h718l-8 55h-667z M764 940h594q-4 12 -7.5 24.5t-7.5 24.5h-542q-14 -14 -19 -26zM858 1214q-4 -4 186 0l17 19h-184zM887 1069h416q-17 16 -33 16h-344q-16 0 -39 -16zM973 1327h180l8 8l4 -8h176l-14 29h-326zM1030 745l10 -61h363l-8 61h-365zM1049 625l10 -70h364l-10 70h-364zM1067 502 l12 -76h363l-10 76h-365zM1085 381l13 -82h364l-12 82h-365zM1118 137l19 -96h366l-16 96h-369zM1143 14l2 -14h364l-2 14h-364zM1221 1233l10 -19h168l-10 19h-168z" />
<glyph unicode="&#xe3;" d="M41 0h866q4 2 9.5 5t11.5 9h-883q0 6 -4 -14zM61 41h893q20 20 41 44.5t41 51.5h-899zM162 170h899q33 43 41 61l10 -61h371l-15 88h-1237zM262 299h426l62 82h-422zM362 426h422l56 76h-418zM463 555h418l51 70h-414zM563 684h414l45 61h-410zM666 813h718l-8 55h-667z M764 940h594q-4 12 -7.5 24.5t-7.5 24.5h-542q-14 -14 -19 -26zM797 1214h186l18 19h-186zM887 1069h416q-17 16 -33 16h-344q-16 0 -39 -16zM911 1327h183l8 8l4 -8h367q10 8 16 14.5t14 14.5h-184l-23 -23l-12 23h-344zM1030 745l10 -61h363l-8 61h-365zM1049 625l10 -70 h364l-10 70h-364zM1067 502l12 -76h363l-10 76h-365zM1085 381l13 -82h364l-12 82h-365zM1118 137l19 -96h366l-16 96h-369zM1143 14l2 -14h364l-2 14h-364zM1159 1233l10 -19h168q8 0 18.5 6.5t18.5 12.5h-215z" />
<glyph unicode="&#xe4;" d="M41 0h866q4 2 9.5 5t11.5 9h-883q0 6 -4 -14zM61 41h893q20 20 41 44.5t41 51.5h-899zM162 170h899q33 43 41 61l10 -61h371l-15 88h-1237zM262 299h426l62 82h-422zM362 426h422l56 76h-418zM463 555h418l51 70h-414zM563 684h414l45 61h-410zM666 813h718l-8 55h-667z M764 940h594q-4 12 -7.5 24.5t-7.5 24.5h-542q-14 -14 -19 -26zM854 1327h260q0 2 4 10q4 12 4 19h-256q-4 -7 -8 -19q-2 -4 -2 -6t-2 -4zM881 1233q26 -16 61 -16t74 16h-135zM887 1069h416q-17 16 -33 16h-344q-16 0 -39 -16zM993 1454h70q-8 2 -15.5 3t-17.5 1t-18 -1 t-19 -3zM1030 745l10 -61h363l-8 61h-365zM1049 625l10 -70h364l-10 70h-364zM1067 502l12 -76h363l-10 76h-365zM1085 381l13 -82h364l-12 82h-365zM1118 137l19 -96h366l-16 96h-369zM1143 14l2 -14h364l-2 14h-364zM1225 1327h260q0 2 4 10q4 12 4 19h-256q-4 -6 -8 -19 q-2 -4 -2 -6t-2 -4zM1253 1233q19 -16 62 -16q35 0 71 16h-133zM1366 1454h70q-8 2 -15.5 3t-17.5 1t-18.5 -1t-18.5 -3z" />
<glyph unicode="&#xe5;" d="M41 0h866q4 2 9.5 5t11.5 9h-883q0 6 -4 -14zM61 41h893q20 20 41 44.5t41 51.5h-899zM162 170h899q33 43 41 61l10 -61h371l-15 88h-1237zM262 299h426l62 82h-422zM362 426h422l56 76h-418zM463 555h418l51 70h-414zM563 684h414l45 61h-410zM666 813h718l-8 55h-667z M764 940h594q-4 12 -7.5 24.5t-7.5 24.5h-542q-14 -14 -19 -26zM887 1069h416q-17 16 -33 16h-344q-16 0 -39 -16zM1030 745l10 -61h363l-8 61h-365zM1042 1327h261q0 2 4 10q4 12 4 19h-256q-4 -7 -8 -19l-3 -6q0 -2 -2 -4zM1049 625l10 -70h364l-10 70h-364zM1067 502 l12 -76h363l-10 76h-365zM1069 1233q26 -16 61 -16t74 16h-135zM1085 381l13 -82h364l-12 82h-365zM1118 137l19 -96h366l-16 96h-369zM1143 14l2 -14h364l-2 14h-364zM1182 1454h69q-8 2 -15 3t-17 1t-18.5 -1t-18.5 -3z" />
<glyph unicode="&#xe6;" horiz-adv-x="2381" d="M41 0h866q4 2 9.5 5t11.5 9h-883q0 6 -4 -14zM61 41h893q20 20 41 44.5t41 51.5h-899zM162 170h899q33 43 41 61l10 -61h1243q4 4 8 10t8.5 10.5t18.5 27t25 40.5h-2184zM262 299h426l62 82h-422zM362 426h422l56 76h-418zM463 555h418l51 70h-414zM563 684h414l45 61 h-410zM666 813h718l-8 55h-667zM764 940h598q-4 12 -8 24.5t-8 24.5h-545q-14 -14 -19 -26zM887 1069h413q-16 16 -30 16h-344q-16 0 -39 -16zM1030 745l10 -61h750l22 61h-393l-16 -49l-8 49h-365zM1049 625l10 -70h684l24 70h-718zM1067 502l12 -76h1043l80 76h-469 l-15 -15l4 15h-655zM1085 381l13 -82h551l28 82h-592zM1118 137l19 -96h1091q23 20 48 44.5t48 51.5h-1206zM1143 14l2 -14h1034l5 3t14 11h-1055zM1444 813h1036q12 6 29 20.5t37 34.5h-1082zM1491 940h1118q10 12 19.5 24.5t19.5 24.5h-1139zM1538 1069h1165q2 4 4.5 8 t4.5 8h-1168zM1788 555h469l74 70h-471z" />
<glyph unicode="&#xe7;" horiz-adv-x="1292" d="M221 -238h535l2 9h-527zM252 -215h512l39 109h-408zM260 461q0 -19 4 -35h406q-10 18 -16.5 37.5t-10.5 38.5h-383v-4v-37zM264 555h379q2 12 6 25.5t8 29.5q2 4 2 6q0 4 3 9h-386q-10 -37 -12 -70zM270 381q9 -45 25 -82h489q-23 14 -45 35.5t-41 46.5h-428zM295 684 h397q10 16 20.5 31.5t22.5 29.5h-411q-8 -16 -15.5 -30.5t-13.5 -30.5zM315 258q14 -25 30 -47.5t36 -40.5h887q16 23 32.5 44.5t32.5 43.5h-1018zM360 813h1033l61 55h-1053q-10 -14 -20.5 -27.5t-20.5 -27.5zM418 137q83 -65 194 -96h537q49 43 92 96h-823zM422 -86h387 l33 88q6 -2 24 -2h236q6 4 16 14h-516l-22 -63h-109zM467 940h1055l43 49h-1041q-16 -12 -29.5 -24.5t-27.5 -24.5zM682 1069h946q4 4 12 16h-845q-54 0 -113 -16z" />
<glyph unicode="&#xe8;" horiz-adv-x="1280" d="M57 0h1030l5 3q6 3 14 11h-1045zM72 41h1065q23 20 48 44.5t48 51.5h-1127zM119 170h1145q4 4 8 10t8 10t18.5 27t24.5 41h-1173zM166 299h391l29 82h-391zM211 426h819l80 76h-469l-14 -15l4 15h-391zM258 555h393l25 70h-391zM305 684h393l23 61h-393zM352 813h1037 q12 6 28.5 20.5t36.5 34.5h-1081zM399 940h1119q10 12 19 24.5t19 24.5h-1138zM446 1069h1166l4 8l4 8h-1167zM696 555h469l74 70h-471zM940 1356q0 -13 4 -29h203q0 8 -1 14.5t-3 14.5h-203zM999 1233q29 -23 64 -23q2 0 22 4l13 9q6 2 14 10h-113zM1006 1454h106 q-6 17 -22 23h-29q-10 -4 -41 -15q-4 -4 -7 -5t-7 -3z" />
<glyph unicode="&#xe9;" horiz-adv-x="1280" d="M57 0h1030l5 3q6 3 14 11h-1045zM72 41h1065q23 20 48 44.5t48 51.5h-1127zM119 170h1145q4 4 8 10t8 10t18.5 27t24.5 41h-1173zM166 299h391l29 82h-391zM211 426h819l80 76h-469l-14 -15l4 15h-391zM258 555h393l25 70h-391zM305 684h393l23 61h-393zM352 813h1037 q12 6 28.5 20.5t36.5 34.5h-1081zM399 940h1119q10 12 19 24.5t19 24.5h-1138zM446 1069h1166l4 8l4 8h-1167zM696 555h469l74 70h-471zM938 1233q2 -6 8 -8l6 -8q4 -4 19 -5q29 0 73 21h-106zM969 1327h202l13.5 13.5t13.5 15.5h-205q-6 -8 -12 -14.5t-12 -14.5zM1096 1454 h110q-2 4 -4 5t-4 5q-6 4 -11 6.5t-11 6.5h-46q-20 -10 -34 -23z" />
<glyph unicode="&#xea;" horiz-adv-x="1280" d="M57 0h1030l5 3q6 3 14 11h-1045zM72 41h1065q23 20 48 44.5t48 51.5h-1127zM119 170h1145q4 4 8 10t8 10t18.5 27t24.5 41h-1173zM166 299h391l29 82h-391zM211 426h819l80 76h-469l-14 -15l4 15h-391zM258 555h393l25 70h-391zM305 684h393l23 61h-393zM352 813h1037 q12 6 28.5 20.5t36.5 34.5h-1081zM399 940h1119q10 12 19 24.5t19 24.5h-1138zM446 1069h1166l4 8l4 8h-1167zM696 555h469l74 70h-471zM774 1221h187l12 12h-187zM883 1327h184l14 14l9 -14h172l-15 29h-336zM1020 1454h166q-11 6 -19 6h-127q-8 0 -20 -6zM1141 1233l6 -12 h168l-6 12h-168z" />
<glyph unicode="&#xeb;" horiz-adv-x="1280" d="M57 0h1030l5 3q6 3 14 11h-1045zM72 41h1065q23 20 48 44.5t48 51.5h-1127zM119 170h1145q4 4 8 10t8 10t18.5 27t24.5 41h-1173zM166 299h391l29 82h-391zM211 426h819l80 76h-469l-14 -15l4 15h-391zM258 555h393l25 70h-391zM305 684h393l23 61h-393zM352 813h1037 q12 6 28.5 20.5t36.5 34.5h-1081zM399 940h1119q10 12 19 24.5t19 24.5h-1138zM446 1069h1166l4 8l4 8h-1167zM696 555h469l74 70h-471zM797 1327h260q0 2 4 10q4 12 4 19h-256q-4 -7 -8 -19q-2 -4 -2 -6t-2 -4zM823 1233q27 -16 62 -16t73 16h-135zM936 1454h70 q-8 2 -15.5 3t-17.5 1t-18.5 -1t-18.5 -3zM1167 1327h260l5 10q4 12 4 19h-256q-4 -6 -9 -19q-2 -4 -2 -6t-2 -4zM1196 1233q18 -16 61 -16q35 0 72 16h-133zM1309 1454h69q-8 2 -15 3t-17 1t-18.5 -1t-18.5 -3z" />
<glyph unicode="&#xec;" horiz-adv-x="507" d="M57 0h394l4 14h-394zM72 41h393l35 96h-394zM119 170h393l31 88h-393zM166 299h393l29 82h-393zM211 426h393l29 76h-393zM258 555h393l27 70h-393zM305 684h393l23 61h-393zM352 813h393l21 55h-393zM399 940h394l18 49h-393zM446 1069h394l6 16h-393zM600 1356 q0 -21 4 -29h205q-2 8 -3 14.5t-3 14.5h-203zM649 1233q35 -31 76 -31q16 0 20 4l15 8q14 6 22 19h-133zM680 1454h90q-13 16 -33 16q-12 0 -57 -16z" />
<glyph unicode="&#xed;" horiz-adv-x="507" d="M57 0h394l4 14h-394zM72 41h393l35 96h-394zM119 170h393l31 88h-393zM166 299h393l29 82h-393zM211 426h393l29 76h-393zM258 555h393l27 70h-393zM305 684h393l23 61h-393zM352 813h393l21 55h-393zM399 940h394l18 49h-393zM446 1069h394l6 16h-393zM590 1233 q2 -6 10 -14l6 -9q4 -4 19 -4q16 0 39.5 7.5t46.5 19.5h-121zM627 1327h204l13.5 13.5t13.5 15.5h-205q-6 -8 -13 -14.5t-13 -14.5zM758 1454h98q-4 0 -4 4q-22 17 -45 17t-49 -21z" />
<glyph unicode="&#xee;" horiz-adv-x="507" d="M57 0h394l4 14h-394zM72 41h393l35 96h-394zM119 170h393l31 88h-393zM166 299h393l29 82h-393zM211 426h393l29 76h-393zM258 555h393l27 70h-393zM305 684h393l23 61h-393zM352 813h393l21 55h-393zM399 940h394l18 49h-393zM428 1219h186l15 14h-187zM446 1069h394 l6 16h-393zM539 1327h182l12 12l6 -12h174l-14 29h-332zM676 1454h158q-9 4 -15 4h-127q-4 0 -16 -4zM793 1233l8 -14h168l-8 14h-168z" />
<glyph unicode="&#xef;" horiz-adv-x="507" d="M57 0h394l4 14h-394zM72 41h393l35 96h-394zM119 170h393l31 88h-393zM166 299h393l29 82h-393zM211 426h393l29 76h-393zM258 555h393l27 70h-393zM305 684h393l23 61h-393zM352 813h393l21 55h-393zM399 940h394l18 49h-393zM426 1327h260q0 2 4 10q4 12 4 19h-256 q-4 -7 -8 -19q-2 -4 -2 -6t-2 -4zM446 1069h394l6 16h-393zM453 1233q26 -16 61 -16t74 16h-135zM565 1454h70q-8 2 -15.5 3t-17.5 1t-18.5 -1t-18.5 -3zM797 1327h260q0 2 4 10q4 12 4 19h-256q-4 -6 -8 -19q-2 -4 -2 -6t-2 -4zM825 1233q19 -16 62 -16q35 0 71 16h-133z M938 1454h70q-8 2 -15.5 3t-17.5 1t-18.5 -1t-18.5 -3z" />
<glyph unicode="&#xf0;" horiz-adv-x="1323" d="M170 258q-2 -43 4 -88h879q66 37 129 88h-1012zM176 299h389l4 57q8 6 14.5 12.5l12.5 12.5h-399q-15 -39 -21 -82zM182 137q21 -63 62 -96h481q68 16 134.5 38.5t131.5 57.5h-809zM215 426h1141q16 16 29.5 35t27.5 37l1 1t1 3h-1151q-12 -18 -24.5 -37t-24.5 -39z M291 14q35 -14 84 -14t102 3t107 11h-293zM313 555h1139q23 35 37 70h-1081q-27 -16 -50.5 -33t-44.5 -37zM463 1069h944q-45 16 -98 16h-846v-16zM467 989q2 -12 3 -25.5t3 -23.5h1057q-4 12 -10.5 24.5t-12.5 24.5h-1040zM489 868q4 -14 10.5 -27.5t12.5 -27.5h1030 q2 26 0 55h-1053zM754 299h479q23 18 42 38.5t42 43.5h-436q-35 -25 -67 -46.5t-60 -35.5zM1118 684h395q13 30 19 61h-414q6 -29 0 -61z" />
<glyph unicode="&#xf1;" horiz-adv-x="1339" d="M57 0h394l4 14h-394zM72 41h393l35 96h-394zM119 170h393l31 88h-393zM166 299h393l29 82h-393zM211 426h393l29 76h-393zM258 555h393l21 55l10 -55h367l-13 70h-751zM305 684h719l-12 61h-684zM352 813h647l-10 55h-616zM399 940h576l-8 49h-549zM446 1069h504l-2 16 h-495zM692 502l15 -76h729l28 76h-389l-10 -27l-6 27h-367zM713 1214h186l19 19h-187zM715 381l14 -82h662l28 82h-704zM737 258l17 -88h589l31 88h-637zM760 137l18 -96h518l35 96h-571zM784 14l2 -14h496l4 14h-502zM827 1327h183l8 8l4 -8h367q10 8 16 14.5t14 14.5h-184 l-23 -23l-12 23h-344zM1075 1233l10 -19h168q8 0 18.5 6.5t18.5 12.5h-215zM1094 555h389l26 70h-389zM1141 684h389l22 61h-389zM1188 813h389l20 55h-389zM1235 940h389l18 49h-389zM1282 1069h389l6 16h-389z" />
<glyph unicode="&#xf2;" horiz-adv-x="1476" d="M229 381q0 -23 2 -43.5t7 -38.5h491q-45 29 -74 82h-426zM229 426h406q-12 37 -12 76h-385v-4q-4 -18 -5.5 -37t-3.5 -35zM246 258q8 -25 17.5 -47.5t23.5 -40.5h1087q25 20 47.5 41.5t42.5 46.5h-1218zM250 555h381q4 20 22 55q4 8 9 15h-388q-16 -39 -24 -70zM303 684 h402q30 32 67 61h-432q-23 -31 -37 -61zM311 137q56 -63 152 -96h700q92 33 170 96h-1022zM389 813h1239q-4 14 -9 27.5t-11 27.5h-1170q-29 -29 -49 -55zM516 940h1047q-23 29 -52 49h-927zM567 14q43 -8 90.5 -11t98.5 -3h205q63 0 120 14h-514zM756 1069h565 q-88 16 -180 16h-271q-55 0 -114 -16zM1010 299h489q33 43 55 82h-426q-29 -27 -59 -47.5t-59 -34.5zM1085 1356q1 -13 5 -29h202q0 8 -1 14.5t-3 14.5h-203zM1139 1233q32 -27 69 -27q18 0 23 4l14 9q8 2 17 14h-123zM1157 1454h100q-14 21 -34 21q-12 0 -58 -17 q-4 -4 -8 -4zM1174 426h405q18 39 31 76h-387q-4 -6 -7.5 -13.5t-7.5 -13.5q-8 -12 -16 -24.5t-18 -24.5zM1221 745q16 -30 22 -61h397q2 16 1 30.5t-3 30.5h-417zM1241 555h385q2 8 3 15.5t3 17.5t3 18t1 19h-389q-2 -18 -2 -35q0 -14 -2 -31l-1 -1t-1 -3z" />
<glyph unicode="&#xf3;" horiz-adv-x="1476" d="M229 381q0 -23 2 -43.5t7 -38.5h491q-45 29 -74 82h-426zM229 426h406q-12 37 -12 76h-385v-4q-4 -18 -5.5 -37t-3.5 -35zM246 258q8 -25 17.5 -47.5t23.5 -40.5h1087q25 20 47.5 41.5t42.5 46.5h-1218zM250 555h381q4 20 22 55q4 8 9 15h-388q-16 -39 -24 -70zM303 684 h402q30 32 67 61h-432q-23 -31 -37 -61zM311 137q56 -63 152 -96h700q92 33 170 96h-1022zM389 813h1239q-4 14 -9 27.5t-11 27.5h-1170q-29 -29 -49 -55zM516 940h1047q-23 29 -52 49h-927zM567 14q43 -8 90.5 -11t98.5 -3h205q63 0 120 14h-514zM756 1069h565 q-88 16 -180 16h-271q-55 0 -114 -16zM1010 299h489q33 43 55 82h-426q-29 -27 -59 -47.5t-59 -34.5zM1067 1233q2 -6 10 -14l6 -9q4 -4 19 -4q16 0 39.5 7.5t46.5 19.5h-121zM1104 1327h205q6 6 13 13.5t13 15.5h-205q-6 -8 -13 -14.5t-13 -14.5zM1174 426h405q18 39 31 76 h-387q-4 -6 -7.5 -13.5t-7.5 -13.5q-8 -12 -16 -24.5t-18 -24.5zM1221 745q16 -30 22 -61h397q2 16 1 30.5t-3 30.5h-417zM1235 1454h98q-4 0 -4 4q-22 17 -45 17t-49 -21zM1241 555h385q2 8 3 15.5t3 17.5t3 18t1 19h-389q-2 -18 -2 -35q0 -14 -2 -31l-1 -1t-1 -3z" />
<glyph unicode="&#xf4;" horiz-adv-x="1476" d="M229 381q0 -23 2 -43.5t7 -38.5h491q-45 29 -74 82h-426zM229 426h406q-12 37 -12 76h-385v-4q-4 -18 -5.5 -37t-3.5 -35zM246 258q8 -25 17.5 -47.5t23.5 -40.5h1087q25 20 47.5 41.5t42.5 46.5h-1218zM250 555h381q4 20 22 55q4 8 9 15h-388q-16 -39 -24 -70zM303 684 h402q30 32 67 61h-432q-23 -31 -37 -61zM311 137q56 -63 152 -96h700q92 33 170 96h-1022zM389 813h1239q-4 14 -9 27.5t-11 27.5h-1170q-29 -29 -49 -55zM516 940h1047q-23 29 -52 49h-927zM567 14q43 -8 90.5 -11t98.5 -3h205q63 0 120 14h-514zM756 1069h565 q-88 16 -180 16h-271q-55 0 -114 -16zM881 1217h186l16 16h-186zM993 1327h185l10 10l4 -10h174l-14 29h-330zM1010 299h489q33 43 55 82h-426q-29 -27 -59 -47.5t-59 -34.5zM1137 1454h147q-4 0 -6 1t-4 1h-127q-4 0 -5 -1t-5 -1zM1174 426h405q18 39 31 76h-387 q-4 -6 -7.5 -13.5t-7.5 -13.5q-8 -12 -16 -24.5t-18 -24.5zM1221 745q16 -30 22 -61h397q2 16 1 30.5t-3 30.5h-417zM1241 555h385q2 8 3 15.5t3 17.5t3 18t1 19h-389q-2 -18 -2 -35q0 -14 -2 -31l-1 -1t-1 -3zM1243 1233l10 -16h168l-8 16h-170z" />
<glyph unicode="&#xf5;" horiz-adv-x="1476" d="M229 381q1 -49 9 -82h491q-45 29 -74 82h-426zM229 426h406q-12 37 -12 74v2h-385v-4v-6q-4 -14 -6.5 -31t-2.5 -35zM246 258q14 -51 43 -88h1085q25 20 47.5 41.5t42.5 46.5h-1218zM250 555h381q4 20 22 55q4 8 9 15h-388q-16 -39 -24 -70zM303 684h402q31 33 67 61 h-432q-23 -30 -37 -61zM313 137q60 -65 150 -96h700q92 33 170 96h-1020zM389 813h1239q-6 26 -18 55h-1172q-29 -29 -49 -55zM516 940h1047q-10 14 -24 26.5t-28 22.5h-927zM565 14q43 -8 90.5 -11t100.5 -3h205q63 0 120 14h-516zM756 1069h563q-41 8 -86 12t-92 4h-271 q-55 0 -114 -16zM786 1214h187l18 19h-186zM901 1327h182l9 8l4 -8h366q10 8 16.5 14.5l14.5 14.5h-184l-23 -23l-12 23h-344zM1010 299h489q32 43 55 82h-426q-29 -27 -59.5 -47.5t-58.5 -34.5zM1149 1233l10 -19h168q8 0 18.5 6.5t18.5 12.5h-215zM1174 426h405 q19 39 31 76h-387q-4 -6 -7.5 -13.5t-7.5 -13.5q-8 -12 -16 -24.5t-18 -24.5zM1221 745q16 -23 22 -61h399v16q0 10 -1 22.5t-1 22.5h-419zM1241 555h385q2 8 3 15.5t3 17.5t3 18t1 19h-389q0 -16 -1 -33t-3 -33l-1 -1t-1 -3z" />
<glyph unicode="&#xf6;" horiz-adv-x="1476" d="M229 381q0 -23 2 -43.5t7 -38.5h491q-45 29 -74 82h-426zM229 426h406q-12 37 -12 76h-385v-4q-4 -18 -5.5 -37t-3.5 -35zM246 258q8 -25 17.5 -47.5t23.5 -40.5h1087q25 20 47.5 41.5t42.5 46.5h-1218zM250 555h381q4 20 22 55q4 8 9 15h-388q-16 -39 -24 -70zM303 684 h402q30 32 67 61h-432q-23 -31 -37 -61zM311 137q56 -63 152 -96h700q92 33 170 96h-1022zM389 813h1239q-4 14 -9 27.5t-11 27.5h-1170q-29 -29 -49 -55zM516 940h1047q-23 29 -52 49h-927zM567 14q43 -8 90.5 -11t98.5 -3h205q63 0 120 14h-514zM756 1069h565 q-88 16 -180 16h-271q-55 0 -114 -16zM891 1327h260q0 2 4 10q4 12 4 19h-256q-4 -7 -8 -19q-2 -4 -2 -6t-2 -4zM918 1233q26 -16 61 -16t74 16h-135zM1010 299h489q33 43 55 82h-426q-29 -27 -59 -47.5t-59 -34.5zM1030 1454h70q-8 2 -15.5 3t-17.5 1t-18.5 -1t-18.5 -3z M1174 426h405q18 39 31 76h-387q-4 -6 -7.5 -13.5t-7.5 -13.5q-8 -12 -16 -24.5t-18 -24.5zM1221 745q16 -30 22 -61h397q2 16 1 30.5t-3 30.5h-417zM1241 555h385q2 8 3 15.5t3 17.5t3 18t1 19h-389q-2 -18 -2 -35q0 -14 -2 -31l-1 -1t-1 -3zM1262 1327h260q0 2 4 10 q4 12 4 19h-256q-4 -6 -8 -19q-2 -4 -2 -6t-2 -4zM1290 1233q27 -16 62 -16t71 16h-133zM1403 1454h70q-8 2 -15.5 3t-17.5 1t-18.5 -1t-18.5 -3z" />
<glyph unicode="&#xf7;" horiz-adv-x="884" d="M211 426h618l80 76h-618zM346 555h619l73 70h-618zM403 170h238q10 10 17.5 23.5t13.5 27.5q4 10 5 18.5t3 18.5h-250q-12 -18 -18 -37q-12 -27 -9 -51zM418 137q23 -37 82 -37t106 37h-188zM469 299h203q-23 43 -84 43q-63 0 -119 -43zM637 813h246q14 20 22 41q2 4 2 6 q0 4 2 8h-258q-2 -6 -6 -14q-8 -18 -8 -41zM676 745q20 -12 53 -12t64 12h-117zM713 940h184q-12 16 -31.5 25.5t-48.5 9.5t-55.5 -9.5t-48.5 -25.5z" />
<glyph unicode="&#xf8;" horiz-adv-x="1476" d="M229 381q0 -23 2.5 -43.5t6.5 -38.5h491h-2v2l111 80h-609zM229 426h672l107 76h-281l-96 -68q-10 37 -10 68h-383v-4q-4 -18 -5.5 -37t-3.5 -35zM246 258q8 -25 17.5 -47.5t23.5 -40.5h1087q25 20 47.5 41.5t42.5 46.5h-1218zM250 555h381q4 20 22 55q4 8 9 15h-388 q-16 -39 -24 -70zM303 684h402q31 33 67 61h-432q-23 -30 -37 -61zM311 137q56 -63 152 -96h700q92 33 170 96h-1022zM389 813h1239q-4 14 -9 27.5t-11 27.5h-1170q-29 -29 -49 -55zM516 940h1047q-23 29 -52 49h-927zM567 14q43 -8 90.5 -11t98.5 -3h205q63 0 120 14h-514z M756 1069h565q-88 16 -180 16h-271q-55 0 -114 -16zM803 555h280l97 70h-279zM985 684h655q2 16 1 30.5t-3 30.5h-565zM1010 299h489q32 43 55 82h-426q-29 -27 -59.5 -47.5t-58.5 -34.5zM1174 426h405q19 39 31 76h-387q-4 -6 -7.5 -13.5t-7.5 -13.5q-8 -12 -16 -24.5 t-18 -24.5zM1241 555h385q2 8 3 15.5t3 17.5t3 18t1 19h-391q2 -16 1 -33t-3 -33l-1 -1t-1 -3z" />
<glyph unicode="&#xf9;" horiz-adv-x="1396" d="M221 299h467q-35 27 -45 82h-416q-4 -23 -5 -43.5t-1 -38.5zM223 258q3 -49 23 -88h1097q33 39 64 88h-1184zM236 426h403q0 31 6 68q0 2 -1 3t1 5h-391q-4 -20 -9 -39t-9 -37zM266 137q45 -61 137 -96h773q74 33 137 96h-1047zM270 555h389q4 12 10.5 29.5t12.5 40.5 h-393q-6 -18 -10.5 -36zM309 684h393q4 14 9.5 29.5t11.5 31.5h-391zM354 813h391q9 24 19 55h-389zM399 940h389q4 10 8.5 23.5l8.5 25.5h-387zM446 1069h388q2 4 3 8t3 8h-387zM510 14q47 -8 98.5 -11t110.5 -3h239q37 0 72 3t66 11h-586zM956 299h474q10 18 20 38.5 t20 43.5h-411q-20 -25 -46 -46.5t-57 -35.5zM1047 1356q0 -13 4 -29h204q-2 8 -3 14.5t-1 14.5h-204zM1094 426h395q8 18 16.5 37t16.5 39h-389l-9 -25q-10 -20 -30 -51zM1100 1233q32 -29 71 -29q2 0 23 4l12 9q12 6 21 16h-127zM1124 1454h95q-15 19 -33 19q-12 0 -58 -17 q-2 -2 -4 -2zM1153 555h387q4 6 5 12.5t5 12.5l17 45h-389zM1200 684h387l23 61h-387zM1247 813h387l21 55h-389zM1292 940h389l19 49h-389zM1339 1069h390l6 16h-389z" />
<glyph unicode="&#xfa;" horiz-adv-x="1396" d="M221 299h467q-35 27 -45 82h-416q-4 -23 -5 -43.5t-1 -38.5zM223 258q3 -49 23 -88h1097q33 39 64 88h-1184zM236 426h403q0 31 6 68q0 2 -1 3t1 5h-391q-4 -20 -9 -39t-9 -37zM266 137q45 -61 137 -96h773q74 33 137 96h-1047zM270 555h389q4 12 10.5 29.5t12.5 40.5 h-393q-6 -18 -10.5 -36zM309 684h393q4 14 9.5 29.5t11.5 31.5h-391zM354 813h391q9 24 19 55h-389zM399 940h389q4 10 8.5 23.5l8.5 25.5h-387zM446 1069h388q2 4 3 8t3 8h-387zM510 14q47 -8 98.5 -11t110.5 -3h239q37 0 72 3t66 11h-586zM956 299h474q10 18 20 38.5 t20 43.5h-411q-20 -25 -46 -46.5t-57 -35.5zM1038 1233q3 -12 11 -16l8 -9q0 -4 18 -4q16 0 41 8.5t49 20.5h-127zM1079 1327h203l13.5 13.5t11.5 15.5h-201q-6 -8 -13.5 -14.5t-13.5 -14.5zM1094 426h395q8 18 16.5 37t16.5 39h-389l-9 -25q-10 -20 -30 -51zM1153 555h387 q4 6 5 12.5t5 12.5l17 45h-389zM1200 684h387l23 61h-387zM1210 1454h95q-2 0 -2 2q-23 17 -46 17q-12 0 -23 -5.5t-24 -13.5zM1247 813h387l21 55h-389zM1292 940h389l19 49h-389zM1339 1069h390l6 16h-389z" />
<glyph unicode="&#xfb;" horiz-adv-x="1396" d="M221 299h467q-35 27 -45 82h-416q-4 -23 -5 -43.5t-1 -38.5zM223 258q3 -49 23 -88h1097q33 39 64 88h-1184zM236 426h403q0 31 6 68q0 2 -1 3t1 5h-391q-4 -20 -9 -39t-9 -37zM266 137q45 -61 137 -96h773q74 33 137 96h-1047zM270 555h389q4 12 10.5 29.5t12.5 40.5 h-393q-6 -18 -10.5 -36zM309 684h393q4 14 9.5 29.5t11.5 31.5h-391zM354 813h391q9 24 19 55h-389zM399 940h389q4 10 8.5 23.5l8.5 25.5h-387zM446 1069h388q2 4 3 8t3 8h-387zM510 14q47 -8 98.5 -11t110.5 -3h239q37 0 72 3t66 11h-586zM848 1217h186l17 16h-187z M956 299h474q10 18 20 38.5t20 43.5h-411q-20 -25 -46 -46.5t-57 -35.5zM961 1327h182l10 10l6 -10h174l-14 29h-330zM1094 426h395q8 18 16.5 37t16.5 39h-389l-9 -25q-10 -20 -30 -51zM1102 1454h147q-4 2 -10 2h-127q-4 0 -5 -1t-5 -1zM1153 555h387q4 6 5 12.5t5 12.5 l17 45h-389zM1200 684h387l23 61h-387zM1210 1233l11 -16h168l-9 16h-170zM1247 813h387l21 55h-389zM1292 940h389l19 49h-389zM1339 1069h390l6 16h-389z" />
<glyph unicode="&#xfc;" horiz-adv-x="1396" d="M221 299h467q-35 27 -45 82h-416q-4 -23 -5 -43.5t-1 -38.5zM223 258q3 -49 23 -88h1097q33 39 64 88h-1184zM236 426h403q0 31 6 68q0 2 -1 3t1 5h-391q-4 -20 -9 -39t-9 -37zM266 137q45 -61 137 -96h773q74 33 137 96h-1047zM270 555h389q4 12 10.5 29.5t12.5 40.5 h-393q-6 -18 -10.5 -36zM309 684h393q4 14 9.5 29.5t11.5 31.5h-391zM354 813h391q9 24 19 55h-389zM399 940h389q4 10 8.5 23.5l8.5 25.5h-387zM446 1069h388q2 4 3 8t3 8h-387zM510 14q47 -8 98.5 -11t110.5 -3h239q37 0 72 3t66 11h-586zM860 1327h260l4 8q4 12 4 21 h-256q-2 -4 -4 -10.5t-4 -10.5zM887 1233q20 -19 63 -19q41 0 78 19h-141zM956 299h474q10 18 20 38.5t20 43.5h-411q-20 -25 -46 -46.5t-57 -35.5zM1010 1454h53q-9 2 -25 2q-18 0 -28 -2zM1094 426h395q8 18 16.5 37t16.5 39h-389l-9 -25q-10 -20 -30 -51zM1153 555h387 q4 6 5 12.5t5 12.5l17 45h-389zM1200 684h387l23 61h-387zM1231 1327h260l4 8q4 12 4 21h-256q-4 -4 -5 -10.5t-3 -10.5zM1247 813h387l21 55h-389zM1257 1233q25 -19 66 -19t78 19h-144zM1292 940h389l19 49h-389zM1339 1069h390l6 16h-389zM1382 1454h54q-9 2 -25 2 q-18 0 -29 -2z" />
<glyph unicode="&#xfd;" horiz-adv-x="1343" d="M432 1085l6 -16h439l-7 16h-438zM471 989l21 -49h436l-21 49h-436zM475 0h393l4 14h-393zM489 41h394l35 96h-394zM520 868l23 -55h850l63 55h-440l-43 -39l-17 39h-436zM537 170h393l33 88h-394zM569 745l25 -61h653l70 61h-748zM584 299h393l31 82h-394zM618 625 l29 -70h453l80 70h-562zM631 426h393l27 76h-394zM1018 1233q2 -12 10 -16l8 -9q0 -4 19 -4q16 0 40.5 8.5t49.5 20.5h-127zM1059 1327h203q6 6 13 13.5t11 15.5h-201q-6 -8 -13 -14.5t-13 -14.5zM1098 940h438l55 49h-438zM1190 1454h94q-2 0 -2 2q-22 17 -45 17 q-12 0 -23.5 -5.5t-23.5 -13.5zM1245 1069h438l19 16h-438z" />
<glyph unicode="&#xfe;" horiz-adv-x="1392" d="M57 0h394l4 14h-394zM72 41h393l35 96h-394zM119 170h393l6 18h576q113 0 227 70h-1171zM166 299h393l31 82h-395zM211 426h395l27 76h-393zM258 555h395l17 47h420q4 0 19 -17.5t21 -27.5v-2h394q2 8 2 25q-2 10 -2 20q0 12 -4 25h-1235zM305 684h1202q-4 16 -10 30.5 t-12 30.5h-1157zM352 813h1092q-29 37 -68 55h-1003zM399 940h394l18 49h-393zM446 1069h394l6 16h-393zM565 299h815q41 33 78 82h-801zM709 426h776q10 16 17.5 36t13.5 40h-406q-10 -14 -18.5 -25.5t-10.5 -11.5h-327z" />
<glyph unicode="&#xff;" horiz-adv-x="1343" d="M432 1085l6 -16h439l-7 16h-438zM471 989l21 -49h436l-21 49h-436zM475 0h393l4 14h-393zM489 41h394l35 96h-394zM520 868l23 -55h850l63 55h-440l-43 -39l-17 39h-436zM537 170h393l33 88h-394zM569 745l25 -61h653l70 61h-748zM584 299h393l31 82h-394zM618 625 l29 -70h453l80 70h-562zM631 426h393l27 76h-394zM844 1327h260l4 8q4 12 4 21h-256q-2 -4 -4 -10.5t-4 -10.5zM870 1233q21 -19 64 -19q41 0 78 19h-142zM993 1454h54q-9 2 -25 2q-18 0 -29 -2zM1098 940h438l55 49h-438zM1214 1327h261l4 8q4 12 4 21h-256q-4 -4 -5 -10.5 t-3 -10.5q-4 -8 -5 -8zM1241 1233q25 -19 66 -19t77 19h-143zM1245 1069h438l19 16h-438zM1366 1454h53q-8 2 -24 2q-18 0 -29 -2z" />
<glyph unicode="&#x152;" horiz-adv-x="2160" d="M260 461q0 -18 4 -35h406q-10 18 -16.5 37.5t-10.5 38.5h-383v-4v-37zM264 555h379q2 12 6 25.5t8 29.5q2 4 2 6q0 4 3 9h-386q-10 -37 -12 -70zM270 381q9 -45 25 -82h489q-23 14 -45 35.5t-41 46.5h-428zM295 684h397q10 16 20.5 31.5t22.5 29.5h-411 q-8 -16 -15.5 -30.5t-13.5 -30.5zM315 258q31 -53 68 -88h1761q4 4 8.5 10t8.5 10.5t18 27t25 40.5h-1889zM360 813h1909q12 6 29 20.5t37 34.5h-1934q-10 -14 -20 -27.5t-21 -27.5zM420 137q41 -35 90 -57.5t104 -38.5h1403q23 20 48.5 45t48.5 51h-1694zM467 940h1931 q10 12 19.5 24.5t19.5 24.5h-1913q-16 -12 -29.5 -24.5t-27.5 -24.5zM682 1069h1810q2 4 4.5 8t4.5 8h-1706q-53 0 -113 -16zM737 14q49 -8 99.5 -11t101.5 -3h1030l5 3t14 11h-1250zM1047 299h391l28 82h-391zM1092 426h819l80 76h-469l-15 -15l4 15h-391zM1139 555h393 l24 70h-391zM1186 684h393l23 61h-394zM1577 555h469l74 70h-471z" />
<glyph unicode="&#x153;" horiz-adv-x="2160" d="M260 461q0 -18 4 -35h406q-10 18 -16.5 37.5t-10.5 38.5h-383v-4v-37zM262 555h381q2 12 6 25.5t8 29.5q2 4 2 6q0 4 3 9h-386q-4 -18 -7 -36t-7 -34zM270 381q9 -45 25 -82h489q-23 14 -45 35.5t-41 46.5h-428zM295 684h397q10 16 20.5 31.5t22.5 29.5h-413 q-8 -16 -14.5 -30.5t-12.5 -30.5zM315 258q31 -53 68 -88h1761q4 4 8.5 10t8.5 10.5t18 27t25 40.5h-1889zM360 813h1909q12 6 29 20.5t37 34.5h-1936q-10 -14 -19 -27.5t-20 -27.5zM420 137q41 -35 90 -57.5t104 -38.5h1403q23 20 48.5 45t48.5 51h-1694zM465 940h1933 q10 12 19.5 24.5t19.5 24.5h-1913q-16 -12 -30.5 -24.5t-28.5 -24.5zM682 1069h1810q2 4 4.5 8t4.5 8h-1706q-53 0 -113 -16zM737 14q49 -8 99.5 -11t101.5 -3h1030l5 3t14 11h-1250zM1047 299h391l28 82h-391zM1092 426h819l80 76h-469l-15 -15l4 15h-391zM1139 555h393 l24 70h-391zM1186 684h393l23 61h-394zM1577 555h469l74 70h-471z" />
<glyph unicode="&#x178;" horiz-adv-x="1343" d="M432 1085l6 -16h439l-7 16h-438zM471 989l21 -49h436l-21 49h-436zM475 0h393l4 14h-393zM489 41h394l35 96h-394zM520 868l23 -55h850l63 55h-440l-43 -39l-17 39h-436zM537 170h393l33 88h-394zM569 745l25 -61h653l70 61h-748zM584 299h393l31 82h-394zM618 625 l29 -70h453l80 70h-562zM631 426h393l27 76h-394zM844 1327h260l4 8q4 12 4 21h-256q-2 -4 -4 -10.5t-4 -10.5zM870 1233q21 -19 64 -19q41 0 78 19h-142zM993 1454h54q-9 2 -25 2q-18 0 -29 -2zM1098 940h438l55 49h-438zM1214 1327h261l4 8q4 12 4 21h-256q-4 -4 -5 -10.5 t-3 -10.5q-4 -8 -5 -8zM1241 1233q25 -19 66 -19t77 19h-143zM1245 1069h438l19 16h-438zM1366 1454h53q-8 2 -24 2q-18 0 -29 -2z" />
<glyph unicode="&#x2c6;" horiz-adv-x="616" d="M346 846h186l23 22h-186zM442 940h185l26 27l15 -27h172l-25 49h-321zM578 1069h190q-17 16 -29 16h-127q-8 0 -17 -5t-17 -11zM707 868l12 -22h168l-13 22h-167z" />
<glyph unicode="&#x2dc;" horiz-adv-x="796" d="M346 846h186l23 22h-186zM442 940h185l26 27l15 -27h338l49 49h-185l-24 -24l-15 24h-337zM578 1069h210l-8 16h-168q-8 0 -17 -5t-17 -11zM707 868l12 -22h168q10 0 21.5 8t21.5 14h-223zM950 1069h187q8 8 9 10l5 6h-184z" />
<glyph unicode="&#x2000;" horiz-adv-x="738" />
<glyph unicode="&#x2001;" horiz-adv-x="1477" />
<glyph unicode="&#x2002;" horiz-adv-x="738" />
<glyph unicode="&#x2003;" horiz-adv-x="1477" />
<glyph unicode="&#x2004;" horiz-adv-x="492" />
<glyph unicode="&#x2005;" horiz-adv-x="369" />
<glyph unicode="&#x2006;" horiz-adv-x="246" />
<glyph unicode="&#x2007;" horiz-adv-x="246" />
<glyph unicode="&#x2008;" horiz-adv-x="184" />
<glyph unicode="&#x2009;" horiz-adv-x="295" />
<glyph unicode="&#x200a;" horiz-adv-x="82" />
<glyph unicode="&#x2010;" horiz-adv-x="739" d="M211 426h473l80 76h-473zM346 555h473l74 70h-473z" />
<glyph unicode="&#x2011;" horiz-adv-x="739" d="M211 426h473l80 76h-473zM346 555h473l74 70h-473z" />
<glyph unicode="&#x2012;" horiz-adv-x="739" d="M211 426h473l80 76h-473zM346 555h473l74 70h-473z" />
<glyph unicode="&#x2013;" horiz-adv-x="739" d="M211 426h473l80 76h-473zM346 555h473l74 70h-473z" />
<glyph unicode="&#x2014;" horiz-adv-x="884" d="M211 426h618l80 76h-618zM346 555h619l73 70h-618z" />
<glyph unicode="&#x2018;" horiz-adv-x="370" d="M352 745q16 -51 84 -51q31 0 61.5 14.5t57.5 36.5h-203zM352 813h254l6 12l15 43h-256l-15 -43q-4 -8 -4 -12zM403 940h240v49h-201q-10 -12 -20 -24.5t-19 -24.5zM532 1069h91q-13 16 -33 16h-17q-14 0 -41 -16z" />
<glyph unicode="&#x2019;" horiz-adv-x="370" d="M373 813h219q25 27 37 55h-252q-2 -12 -3 -26.5t-1 -28.5zM379 745q4 -23 16.5 -36t32.5 -13h16q12 0 35 13.5t47 35.5h-147zM399 940h256l7 16q4 8 5 16.5t3 16.5h-248q-10 -16 -16 -33zM506 1069h135q-24 18 -61 18t-74 -18z" />
<glyph unicode="&#x201a;" horiz-adv-x="425" d="M74 14q0 -23 1 -50t7 -50h190q55 49 95 100h-293zM76 41h305q4 4 8 16l29 80h-312l-28 -80q0 -4 -1 -8t-1 -8zM90 -106q10 -18 22 -29.5t35 -11.5h19q14 0 34.5 11t45.5 30h-156zM121 170h307q8 51 -25 88h-192q-59 -37 -90 -88z" />
<glyph unicode="&#x201c;" horiz-adv-x="667" d="M354 745q16 -51 84 -51q31 0 61.5 14.5t57.5 36.5h-203zM354 813h254l6 12l15 43h-256l-15 -43q-4 -8 -4 -12zM406 940h239v49h-201q-10 -12 -20 -24.5t-18 -24.5zM535 1069h90q-13 16 -33 16h-17q-14 0 -40 -16zM651 745q16 -51 84 -51q31 0 61.5 14.5t57.5 36.5h-203z M651 813h254l6 12l15 43h-256l-15 -43q-4 -8 -4 -12zM702 940h240v49h-201q-10 -12 -20 -24.5t-19 -24.5zM831 1069h91q-13 16 -33 16h-17q-14 0 -41 -16z" />
<glyph unicode="&#x201d;" horiz-adv-x="667" d="M373 813h219q25 27 37 55h-252q-2 -12 -3 -26.5t-1 -28.5zM379 745q4 -23 16.5 -36t32.5 -13h16q12 0 35 13.5t47 35.5h-147zM399 940h256l7 16q4 8 5 16.5t3 16.5h-248q-10 -16 -16 -33zM506 1069h135q-24 18 -61 18t-74 -18zM670 813h219q25 27 37 55h-252 q-2 -12 -3 -26.5t-1 -28.5zM676 745q4 -23 16.5 -36t32.5 -13h16q12 0 35 13.5t47 35.5h-147zM696 940h256l6 16q4 8 5.5 16.5t3.5 16.5h-248q-10 -16 -17 -33zM803 1069h135q-24 18 -61 18t-74 -18z" />
<glyph unicode="&#x201e;" horiz-adv-x="780" d="M74 14q0 -23 1 -50t7 -50h190q55 49 95 100h-293zM76 41h305q4 4 8 16l29 80h-312l-28 -80q0 -4 -1 -8t-1 -8zM90 -106q10 -18 22 -29.5t35 -11.5h19q14 0 34.5 11t45.5 30h-156zM121 170h307q8 51 -25 88h-192q-59 -37 -90 -88zM428 14q0 -23 1 -50t7 -50h191 q55 49 94 100h-293zM430 41h305q4 4 8 16l29 80h-311l-29 -80q0 -4 -1 -8t-1 -8zM444 -106q10 -18 22.5 -29.5t35.5 -11.5h18q14 0 34.5 11t45.5 30h-156zM475 170h307q9 51 -24 88h-193q-59 -37 -90 -88z" />
<glyph unicode="&#x2022;" horiz-adv-x="729" d="M252 502q0 -39 12 -76h539q10 12 18 24.5t17 24.5q4 6 7 13.5t7 13.5h-600zM260 555h610l2 4q2 16 2 31q0 16 3 35h-586q-4 -6 -8 -15q-18 -35 -23 -55zM285 381q28 -53 73 -82h281q29 14 59.5 34.5t59.5 47.5h-473zM334 684h538q-6 30 -22 61h-449q-37 -29 -67 -61z" />
<glyph unicode="&#x2026;" horiz-adv-x="1148" d="M106 137q-20 -55 11 -96h221q27 18 48.5 42.5t31.5 53.5h-312zM121 170h307q8 51 -25 88h-192q-59 -37 -90 -88zM147 14q23 -14 66 -14q41 0 76 14h-142zM465 137q-20 -55 10 -96h221q27 18 48.5 42.5t31.5 53.5h-311zM479 170h307q8 51 -24 88h-193q-59 -37 -90 -88z M506 14q23 -14 65 -14q41 0 76 14h-141zM829 137q-20 -55 11 -96h221q27 18 48.5 42.5t31.5 53.5h-312zM844 170h307q8 51 -25 88h-192q-59 -37 -90 -88zM870 14q23 -14 66 -14q41 0 76 14h-142z" />
<glyph unicode="&#x202f;" horiz-adv-x="295" />
<glyph unicode="&#x2039;" horiz-adv-x="354" d="M229 475q-4 -10 2.5 -20.5t10.5 -16.5l14 -12h197l20 57l-22 19h-211zM258 555h125l-4 4l96 66h-184q-12 -16 -15 -23zM307 381l96 -82h3l30 82h-129zM367 684h178l22 61h-106zM563 813h29l10 25z" />
<glyph unicode="&#x203a;" horiz-adv-x="354" d="M164 299h6l127 82h-104zM209 426h156l51 33q10 8 24.5 19t26.5 24h-184l-60 -41zM303 684h223q-2 2 -2 4t-2 4l-61 53h-135zM317 625l68 -54l-25 -16h136l24 70h-203zM350 813h35l-25 23v-2h-2z" />
<glyph unicode="&#x205f;" horiz-adv-x="369" />
<glyph unicode="&#x20ac;" horiz-adv-x="1515" d="M160 336h348l12 -37h484q-23 12 -41 37h47l69 45h-850zM242 561h245v-6h377l2 6h226l98 64h-850zM301 426h850l115 74h-400v2h-383v-2h-67zM434 684h850l64 41h-404q8 12 17 20h-414q-4 -6 -6 -11t-4 -9h-39zM539 258q28 -51 65 -88h887q16 23 32.5 44.5t32.5 43.5h-1017 zM586 813h1030l61 55h-1052q-10 -14 -19.5 -27.5t-19.5 -27.5zM641 137q41 -35 90.5 -57.5t104.5 -38.5h536q49 43 92 96h-823zM690 940h1055l43 49h-1038q-16 -12 -30.5 -24.5t-29.5 -24.5zM905 1069h946q5 4 13 16h-846q-53 0 -113 -16zM956 14q49 -8 100.5 -11t104.5 -3 h164q6 4 16 14h-385z" />
<glyph unicode="&#x25fc;" horiz-adv-x="1085" d="M0 0v1085h1085v-1085h-1085z" />
</font>
</defs>
</svg>
